<?xml version="1.0" encoding="iso-8859-1"?>
<!-- Generator: Adobe Illustrator 19.0.0, SVG Export Plug-In . SVG Version: 6.00 Build 0)  -->
<svg xmlns="http://www.w3.org/2000/svg" xmlns:xlink="http://www.w3.org/1999/xlink" version="1.1" id="Capa_1" x="0px" y="0px" viewBox="0 0 477.544 477.544" style="enable-background:new 0 0 477.544 477.544;" xml:space="preserve" width="512px" height="512px">
<g>
	<g>
		<path d="M425.452,329.568c-5.912-4.976-13.704-7.072-21.304-5.752l-158.656,27.592l-45.064-45.064    c-1.496-1.504-3.528-2.344-5.656-2.344h-88h-32h-72v16h64v112h-64v16h72h32c4.424,0,8-3.576,8-8v-8h22.112l85.528,42.768    c3.696,1.848,7.704,2.776,11.696,2.776c4.552,0,9.096-1.192,13.168-3.568L421.804,372.16c8-4.664,12.968-13.312,12.968-22.576    C434.772,341.848,431.372,334.552,425.452,329.568z M98.772,432h-16V320h16V432z M413.74,358.336L239.22,460.152    c-2.96,1.728-6.568,1.848-9.648,0.304l-87.216-43.608c-1.112-0.56-2.344-0.848-3.584-0.848h-24v-96h76.688l63.032,63.032    c2.72,2.72,4.28,6.488,4.28,10.344c0,8.064-6.56,14.624-14.624,14.624c-3.848,0-7.624-1.56-10.344-4.28l-41.376-41.376    l-11.312,11.312l41.376,41.376c5.784,5.784,13.472,8.968,21.656,8.968c16.88,0,30.624-13.744,30.624-30.624    c0-8.176-3.184-15.872-8.968-21.656l-6.48-6.48l147.552-25.664c2.984-0.52,5.976,0.296,8.272,2.232    c2.304,1.936,3.624,4.768,3.624,7.768C418.772,353.168,416.844,356.528,413.74,358.336z" fill="#4a90e2"/>
	</g>
</g>
<g>
	<g>
		<path d="M122.772,0c-61.76,0-112,50.24-112,112s50.24,112,112,112s112-50.24,112-112S184.532,0,122.772,0z M122.772,208    c-52.936,0-96-43.064-96-96s43.064-96,96-96c52.936,0,96,43.064,96,96C218.772,164.936,175.708,208,122.772,208z" fill="#4a90e2"/>
	</g>
</g>
<g>
	<g>
		<path d="M362.772,48c-61.76,0-112,50.24-112,112s50.24,112,112,112s112-50.24,112-112S424.532,48,362.772,48z M362.772,256    c-52.936,0-96-43.064-96-96c0-52.936,43.064-96,96-96c52.936,0,96,43.064,96,96C458.772,212.936,415.708,256,362.772,256z" fill="#4a90e2"/>
	</g>
</g>
<g>
	<g>
		<path d="M82.772,72c-13.232,0-24,10.768-24,24s10.768,24,24,24s24-10.768,24-24S96.004,72,82.772,72z M82.772,104    c-4.416,0-8-3.584-8-8s3.584-8,8-8s8,3.584,8,8S87.188,104,82.772,104z" fill="#4a90e2"/>
	</g>
</g>
<g>
	<g>
		<path d="M162.772,72c-13.232,0-24,10.768-24,24s10.768,24,24,24s24-10.768,24-24S176.004,72,162.772,72z M162.772,104    c-4.416,0-8-3.584-8-8s3.584-8,8-8s8,3.584,8,8S167.188,104,162.772,104z" fill="#4a90e2"/>
	</g>
</g>
<g>
	<g>
		<path d="M322.772,120c-13.232,0-24,10.768-24,24s10.768,24,24,24s24-10.768,24-24S336.004,120,322.772,120z M322.772,152    c-4.416,0-8-3.584-8-8s3.584-8,8-8c4.416,0,8,3.584,8,8S327.188,152,322.772,152z" fill="#4a90e2"/>
	</g>
</g>
<g>
	<g>
		<path d="M402.772,120c-13.232,0-24,10.768-24,24s10.768,24,24,24s24-10.768,24-24S416.004,120,402.772,120z M402.772,152    c-4.416,0-8-3.584-8-8s3.584-8,8-8c4.416,0,8,3.584,8,8S407.188,152,402.772,152z" fill="#4a90e2"/>
	</g>
</g>
<g>
	<g>
		<path d="M122.772,136c-22.056,0-40,17.944-40,40h16c0-13.232,10.768-24,24-24s24,10.768,24,24h16    C162.772,153.944,144.828,136,122.772,136z" fill="#4a90e2"/>
	</g>
</g>
<g>
	<g>
		<path d="M386.772,192c0,13.232-10.768,24-24,24s-24-10.768-24-24h-16c0,22.056,17.944,40,40,40c22.056,0,40-17.944,40-40H386.772z    " fill="#4a90e2"/>
	</g>
</g>
<g>
	<g>
		<rect x="322.772" width="16" height="16" fill="#4a90e2"/>
	</g>
</g>
<g>
	<g>
		<rect x="354.772" width="16" height="16" fill="#4a90e2"/>
	</g>
</g>
<g>
	<g>
		<rect x="386.772" width="16" height="16" fill="#4a90e2"/>
	</g>
</g>
<g>
</g>
<g>
</g>
<g>
</g>
<g>
</g>
<g>
</g>
<g>
</g>
<g>
</g>
<g>
</g>
<g>
</g>
<g>
</g>
<g>
</g>
<g>
</g>
<g>
</g>
<g>
</g>
<g>
</g>
</svg>
