<?xml version="1.0" encoding="iso-8859-1"?>
<!-- Generator: Adobe Illustrator 19.0.0, SVG Export Plug-In . SVG Version: 6.00 Build 0)  -->
<svg xmlns="http://www.w3.org/2000/svg" xmlns:xlink="http://www.w3.org/1999/xlink" version="1.1" id="Layer_1" x="0px" y="0px" viewBox="0 0 496 496" style="enable-background:new 0 0 496 496;" xml:space="preserve" width="512px" height="512px">
<g>
	<g>
		<g>
			<path d="M0,0v400h197.096L224,426.904V496h16v-75.72l-90.144-90.136C146.08,326.36,144,321.344,144,316s2.08-10.36,5.856-14.144     c7.56-7.56,20.72-7.56,28.28,0L240,363.712V148c0-11.032,8.968-20,20-20c11.032,0,20,8.968,20,20v96v20h16v-20     c0-11.032,8.968-20,20-20c11.032,0,20,8.968,20,20v8v12h16v-12c0-11.032,8.968-20,20-20c11.032,0,20,8.968,20,20v16v4h16v-4     c0-11.032,8.968-20,20-20c11.032,0,20,8.968,20,20v172c0,13.232-10.768,24-24,24h-8v32h16v-16.808     c18.232-3.72,32-19.872,32-39.192v-40h32V0H0z M149.096,352H127.8c3.328-4.4,5.808-9.448,7.096-14.992     c1.12,1.544,2.28,3.072,3.656,4.448L149.096,352z M127.8,304h2.384c-0.264,0.744-0.472,1.504-0.688,2.272     C128.976,305.472,128.368,304.76,127.8,304z M224,325.088l-20.968-20.968L224,304.032V325.088z M224,256h-96.208     c5.08-6.704,8.208-14.96,8.208-24s-3.128-17.296-8.208-24H224V256z M260,112c-19.848,0-36,16.152-36,36v12h-96.208     c5.08-6.704,8.208-14.96,8.208-24s-3.128-17.296-8.208-24H260h132c13.232,0,24,10.768,24,24s-10.768,24-24,24h-96v-12     C296,128.152,279.848,112,260,112z M415.816,234.272c-3.688,1.336-7.04,3.248-10.056,5.64C400.768,226.016,387.592,216,372,216     c-9.688,0-18.456,3.888-24.936,10.136C340.84,215.352,329.32,208,316,208c-7.4,0-14.272,2.256-20,6.096V208h20h76     c13.232,0,24,10.768,24,24C416,232.72,415.912,233.488,415.816,234.272z M480,384h-16V268c0-18.496-14.064-33.592-32.032-35.6     c0-0.128,0.032-0.272,0.032-0.4c0-22.056-17.944-40-40-40h-96v-16h96c22.056,0,40-17.944,40-40c0-22.056-17.944-40-40-40H96     c-22.056,0-40,17.944-40,40c0,22.056,17.944,40,40,40h128v16H96c-22.056,0-40,17.944-40,40c0,22.056,17.944,40,40,40h128v16.032     l-37.416,0.16C180.192,282.984,172.36,280,164,280c-8.264,0-16,2.912-22.352,8H96c-22.056,0-40,17.944-40,40     c0,22.056,17.944,40,40,40h69.096l16,16H16V80h464V384z M120,136c0,13.232-10.768,24-24,24s-24-10.768-24-24s10.768-24,24-24     S120,122.768,120,136z M120,232c0,13.232-10.768,24-24,24s-24-10.768-24-24s10.768-24,24-24S120,218.768,120,232z M120,328     c0,13.232-10.768,24-24,24s-24-10.768-24-24s10.768-24,24-24S120,314.768,120,328z M480,64H16V16h464V64z" fill="#00d100"/>
			<rect x="32" y="32" width="16" height="16" fill="#00d100"/>
			<rect x="64" y="32" width="16" height="16" fill="#00d100"/>
			<rect x="96" y="32" width="16" height="16" fill="#00d100"/>
		</g>
	</g>
</g>
<g>
</g>
<g>
</g>
<g>
</g>
<g>
</g>
<g>
</g>
<g>
</g>
<g>
</g>
<g>
</g>
<g>
</g>
<g>
</g>
<g>
</g>
<g>
</g>
<g>
</g>
<g>
</g>
<g>
</g>
</svg>
