<?xml version="1.0" encoding="iso-8859-1"?>
<!-- Generator: Adobe Illustrator 19.0.0, SVG Export Plug-In . SVG Version: 6.00 Build 0)  -->
<svg xmlns="http://www.w3.org/2000/svg" xmlns:xlink="http://www.w3.org/1999/xlink" version="1.1" id="Capa_1" x="0px" y="0px" viewBox="0 0 512 512" style="enable-background:new 0 0 512 512;" xml:space="preserve" width="512px" height="512px">
<g>
	<g>
		<path d="M135.92,215.855v-34.68c0-23.48-19.09-42.58-42.57-42.58c-23.47,0-42.57,19.1-42.57,42.58v119.83H146v-85.15H135.92z" fill="#3ac3ea"/>
	</g>
</g>
<g>
	<g>
		<path d="M94.96,34.255c-26.88,0-48.75,21.87-48.75,48.75c0,26.87,21.87,48.74,48.75,48.74s48.75-21.87,48.75-48.74    C143.71,56.125,121.84,34.255,94.96,34.255z" fill="#3ac3ea"/>
	</g>
</g>
<g>
	<g>
		<path d="M419.37,138.595c-23.47,0-42.57,19.1-42.57,42.58v34.68H367v85.15h94.95v-119.83    C461.95,157.695,442.85,138.595,419.37,138.595z" fill="#3ac3ea"/>
	</g>
</g>
<g>
	<g>
		<path d="M420.21,34.255c-27.84,0-50.49,22.65-50.49,50.49s22.65,50.49,50.49,50.49c27.84,0,50.49-22.65,50.49-50.49    S448.05,34.255,420.21,34.255z" fill="#3ac3ea"/>
	</g>
</g>
<g>
	<g>
		<rect x="176" y="180.215" width="161" height="297.53" fill="#3ac3ea"/>
	</g>
</g>
<g>
	<g>
		<polygon points="512,352.995 512,140.125 482,140.125 482,322.995 367,322.995 367,352.995 408.145,352.995 408.145,447.742     395.07,447.742 395.07,477.742 449.959,477.742 449.959,447.742 438.145,447.742 438.145,352.995   " fill="#3ac3ea"/>
	</g>
</g>
<g>
	<g>
		<polygon points="146,352.995 146,322.995 30,322.995 30,140.125 0,140.125 0,352.995 73.855,352.995 73.855,447.742     62.041,447.742 62.041,477.742 116.93,477.742 116.93,447.742 103.855,447.742 103.855,352.995   " fill="#3ac3ea"/>
	</g>
</g>
<g>
</g>
<g>
</g>
<g>
</g>
<g>
</g>
<g>
</g>
<g>
</g>
<g>
</g>
<g>
</g>
<g>
</g>
<g>
</g>
<g>
</g>
<g>
</g>
<g>
</g>
<g>
</g>
<g>
</g>
</svg>
