<?xml version="1.0" encoding="iso-8859-1"?>
<!-- Generator: Adobe Illustrator 19.0.0, SVG Export Plug-In . SVG Version: 6.00 Build 0)  -->
<svg xmlns="http://www.w3.org/2000/svg" xmlns:xlink="http://www.w3.org/1999/xlink" version="1.1" id="Capa_1" x="0px" y="0px" viewBox="0 0 480.063 480.063" style="enable-background:new 0 0 480.063 480.063;" xml:space="preserve" width="512px" height="512px">
<g>
	<g>
		<path d="M396.814,99.839c-15.52-68.918-83.97-112.206-152.888-96.687c-34.873,7.853-64.869,29.94-82.72,60.911h-1.192    c-50.189,0.119-93.16,36.004-102.224,85.368c-37.49,13.882-61.015,51.179-57.392,90.992c2.657,27.768,18.546,52.549,42.672,66.552    l8.2-13.736c-19.719-11.407-32.727-31.623-34.936-54.296c-3.131-34.129,18.109-65.775,50.88-75.808    c3.003-0.915,5.193-3.503,5.6-6.616c5.844-43.713,43.099-76.377,87.2-76.456c1.248,0,2.48,0.088,3.712,0.168l1.6,0.104    c3.133,0.182,6.083-1.486,7.544-4.264c28.672-54.759,96.307-75.907,151.066-47.235c30.526,15.984,51.988,45.138,58.182,79.035    c0.575,3.189,3.017,5.716,6.184,6.4c47.596,10.353,79.934,54.657,75.288,103.144c-2.497,25.946-15.715,49.67-36.464,65.448    l9.808,12.632c24.25-18.472,39.686-46.23,42.584-76.576C484.736,164.353,449.767,114.003,396.814,99.839z" fill="#1f8aef"/>
	</g>
</g>
<g>
	<g>
		<path d="M248.014,368.063h-16c-30.913,0.035-55.965,25.087-56,56v56h128v-56C303.978,393.15,278.927,368.098,248.014,368.063z     M288.014,464.063h-96v-40c0.026-22.08,17.92-39.974,40-40h16c22.08,0.026,39.974,17.92,40,40V464.063z" fill="#1f8aef"/>
	</g>
</g>
<g>
	<g>
		<path d="M240.014,280.063c-22.091,0-40,17.909-40,40c0,22.091,17.909,40,40,40c22.08-0.026,39.974-17.92,40-40    C280.014,297.972,262.105,280.063,240.014,280.063z M240.014,344.063c-13.255,0-24-10.745-24-24s10.745-24,24-24s24,10.745,24,24    S253.268,344.063,240.014,344.063z" fill="#1f8aef"/>
	</g>
</g>
<g>
	<g>
		<path d="M104.014,368.063h-16c-30.913,0.035-55.965,25.087-56,56v56h128v-56C159.978,393.15,134.927,368.098,104.014,368.063z     M144.014,464.063h-96v-40c0.026-22.08,17.92-39.974,40-40h16c22.08,0.026,39.974,17.92,40,40V464.063z" fill="#1f8aef"/>
	</g>
</g>
<g>
	<g>
		<path d="M96.014,280.063c-22.091,0-40,17.909-40,40c0,22.091,17.909,40,40,40c22.08-0.026,39.974-17.92,40-40    C136.014,297.972,118.105,280.063,96.014,280.063z M96.014,344.063c-13.255,0-24-10.745-24-24s10.745-24,24-24s24,10.745,24,24    S109.268,344.063,96.014,344.063z" fill="#1f8aef"/>
	</g>
</g>
<g>
	<g>
		<path d="M392.014,368.063h-16c-30.913,0.035-55.965,25.087-56,56v56h128v-56C447.978,393.15,422.927,368.098,392.014,368.063z     M432.014,464.063h-96v-40c0.026-22.08,17.92-39.974,40-40h16c22.08,0.026,39.974,17.92,40,40V464.063z" fill="#1f8aef"/>
	</g>
</g>
<g>
	<g>
		<path d="M384.014,280.063c-22.091,0-40,17.909-40,40c0,22.091,17.909,40,40,40c22.08-0.026,39.974-17.92,40-40    C424.014,297.972,406.105,280.063,384.014,280.063z M384.014,344.063c-13.255,0-24-10.745-24-24s10.745-24,24-24s24,10.745,24,24    S397.268,344.063,384.014,344.063z" fill="#1f8aef"/>
	</g>
</g>
<g>
	<g>
		<path d="M299.421,128.119c-9.773-24.224-33.286-40.078-59.408-40.056c-35.346-0.031-64.025,28.598-64.055,63.944    c-0.023,26.121,15.831,49.635,40.055,59.408v4.648h-16v16h16v16c0,4.418,3.582,8,8,8h8v8h16v-8h8c4.418,0,8-3.582,8-8v-16h16v-16    h-16v-4.648C296.793,198.191,312.645,160.898,299.421,128.119z M248.014,240.063h-16v-8h16V240.063z M253.734,198.071    c-3.395,1.009-5.722,4.13-5.72,7.672v10.32h-16v-10.32c0.002-3.542-2.325-6.663-5.72-7.672    c-25.404-7.577-39.855-34.314-32.277-59.717c7.577-25.404,34.314-39.855,59.717-32.277c25.404,7.577,39.855,34.314,32.277,59.717    C281.384,181.308,269.248,193.444,253.734,198.071z" fill="#1f8aef"/>
	</g>
</g>
<g>
	<g>
		<path d="M200.014,152.063h16c0-13.255,10.745-24,24-24v-16C217.933,112.09,200.04,129.983,200.014,152.063z" fill="#1f8aef"/>
	</g>
</g>
<g>
	<g>
		<rect x="232.014" y="64.063" width="16" height="16" fill="#1f8aef"/>
	</g>
</g>
<g>
	<g>
		<rect x="288.574" y="87.499" transform="matrix(0.7071 -0.7071 0.7071 0.7071 19.3364 237.681)" width="16" height="16" fill="#1f8aef"/>
	</g>
</g>
<g>
	<g>
		<rect x="312.014" y="144.063" width="16" height="16" fill="#1f8aef"/>
	</g>
</g>
<g>
	<g>
		<rect x="175.446" y="87.493" transform="matrix(0.7072 -0.707 0.707 0.7072 -13.8043 157.6505)" width="16" height="16" fill="#1f8aef"/>
	</g>
</g>
<g>
	<g>
		<rect x="152.014" y="144.063" width="16" height="16" fill="#1f8aef"/>
	</g>
</g>
<g>
</g>
<g>
</g>
<g>
</g>
<g>
</g>
<g>
</g>
<g>
</g>
<g>
</g>
<g>
</g>
<g>
</g>
<g>
</g>
<g>
</g>
<g>
</g>
<g>
</g>
<g>
</g>
<g>
</g>
</svg>
