<?xml version="1.0" encoding="iso-8859-1"?>
<!-- Generator: Adobe Illustrator 19.0.0, SVG Export Plug-In . SVG Version: 6.00 Build 0)  -->
<svg xmlns="http://www.w3.org/2000/svg" xmlns:xlink="http://www.w3.org/1999/xlink" version="1.1" id="Capa_1" x="0px" y="0px" viewBox="0 0 512 512" style="enable-background:new 0 0 512 512;" xml:space="preserve" width="512px" height="512px">
<g>
	<g>
		<path d="M504.485,160.313h-72.642V55.609C431.843,24.946,406.898,0,376.235,0H55.609C24.946,0,0,24.946,0,55.609v448.877    C0,508.635,3.365,512,7.515,512h320.626c4.151,0,7.515-3.365,7.515-7.515v-40.579h25.049v24.548c0,6.225,7.518,9.778,12.326,5.773    l96.188-80.157c3.55-2.958,3.55-8.588,0-11.546l-96.188-80.157c-4.802-4.001-12.326-0.466-12.326,5.772v24.548h-25.049v-49.096    h128.751C490.649,303.593,512,282.242,512,256v-88.172C512,163.678,508.636,160.313,504.485,160.313z M368.219,367.718    c4.151,0,7.515-3.365,7.515-7.515v-16.018l76.934,64.112l-76.934,64.112v-16.018c0-4.15-3.364-7.515-7.515-7.515H271.53v-81.159    H368.219z M335.656,288.564V132.091c0-4.15-3.364-7.515-7.515-7.515c-4.151,0-7.515,3.365-7.515,7.515v220.598h-56.611    c-4.151,0-7.515,3.365-7.515,7.515v96.188c0,4.15,3.364,7.515,7.515,7.515h56.611v33.065H15.029V55.609    c0-22.376,18.204-40.579,40.579-40.579h282.642c-10.84,10.154-17.624,24.589-17.624,40.579v41.08c0,4.15,3.364,7.515,7.515,7.515    c4.151,0,7.515-3.365,7.515-7.515v-41.08c0-22.376,18.204-40.579,40.579-40.579c22.376,0,40.579,18.204,40.579,40.579V256    c0,12.585,4.91,24.044,12.915,32.564H335.656z M496.971,256c0,17.955-14.608,32.564-32.564,32.564S431.843,273.955,431.843,256    v-80.658h65.127V256z" fill="#3ac3ea"/>
	</g>
</g>
<g>
	<g>
		<path d="M103.703,224.438H55.609c-4.15,0-7.515,3.365-7.515,7.515c0,4.15,3.365,7.515,7.515,7.515h48.094    c4.15,0,7.515-3.365,7.515-7.515C111.217,227.803,107.853,224.438,103.703,224.438z" fill="#3ac3ea"/>
	</g>
</g>
<g>
	<g>
		<path d="M151.796,288.564H55.609c-4.15,0-7.515,3.365-7.515,7.515c0,4.15,3.365,7.515,7.515,7.515h96.188    c4.15,0,7.515-3.365,7.515-7.515C159.311,291.928,155.947,288.564,151.796,288.564z" fill="#3ac3ea"/>
	</g>
</g>
<g>
	<g>
		<path d="M95.687,352.689H55.609c-4.15,0-7.515,3.365-7.515,7.515c0,4.15,3.365,7.515,7.515,7.515h40.078    c4.15,0,7.515-3.365,7.515-7.515C103.202,356.053,99.837,352.689,95.687,352.689z" fill="#3ac3ea"/>
	</g>
</g>
<g>
	<g>
		<path d="M151.796,416.814H55.609c-4.15,0-7.515,3.365-7.515,7.515c0,4.15,3.365,7.515,7.515,7.515h96.188    c4.15,0,7.515-3.365,7.515-7.515C159.311,420.179,155.947,416.814,151.796,416.814z" fill="#3ac3ea"/>
	</g>
</g>
<g>
	<g>
		<path d="M167.828,224.438H127.75c-4.15,0-7.515,3.365-7.515,7.515c0,4.15,3.365,7.515,7.515,7.515h40.078    c4.15,0,7.515-3.365,7.515-7.515C175.342,227.803,171.978,224.438,167.828,224.438z" fill="#3ac3ea"/>
	</g>
</g>
<g>
	<g>
		<path d="M280.047,224.438h-88.172c-4.15,0-7.515,3.365-7.515,7.515c0,4.15,3.365,7.515,7.515,7.515h88.172    c4.151,0,7.515-3.365,7.515-7.515C287.562,227.803,284.198,224.438,280.047,224.438z" fill="#3ac3ea"/>
	</g>
</g>
<g>
	<g>
		<path d="M191.875,288.564h-8.016c-4.15,0-7.515,3.365-7.515,7.515c0,4.15,3.365,7.515,7.515,7.515h8.016    c4.15,0,7.515-3.365,7.515-7.515C199.389,291.928,196.025,288.564,191.875,288.564z" fill="#3ac3ea"/>
	</g>
</g>
<g>
	<g>
		<path d="M223.937,288.564h-8.016c-4.15,0-7.515,3.365-7.515,7.515c0,4.15,3.365,7.515,7.515,7.515h8.016    c4.15,0,7.515-3.365,7.515-7.515C231.452,291.928,228.087,288.564,223.937,288.564z" fill="#3ac3ea"/>
	</g>
</g>
<g>
	<g>
		<path d="M207.906,352.689h-88.172c-4.15,0-7.515,3.365-7.515,7.515c0,4.15,3.365,7.515,7.515,7.515h88.172    c4.15,0,7.515-3.365,7.515-7.515C215.421,356.053,212.056,352.689,207.906,352.689z" fill="#3ac3ea"/>
	</g>
</g>
<g>
	<g>
		<path d="M240.971,352.689h-9.018c-4.15,0-7.515,3.365-7.515,7.515c0,4.15,3.365,7.515,7.515,7.515h9.018    c4.15,0,7.515-3.365,7.515-7.515C248.485,356.053,245.121,352.689,240.971,352.689z" fill="#3ac3ea"/>
	</g>
</g>
<g>
	<g>
		<path d="M183.859,416.814h-8.016c-4.15,0-7.515,3.365-7.515,7.515c0,4.15,3.365,7.515,7.515,7.515h8.016    c4.15,0,7.515-3.365,7.515-7.515C191.374,420.179,188.009,416.814,183.859,416.814z" fill="#3ac3ea"/>
	</g>
</g>
<g>
	<g>
		<path d="M240.637,416.814h-32.731c-4.15,0-7.515,3.365-7.515,7.515c0,4.15,3.365,7.515,7.515,7.515h32.731    c4.15,0,7.515-3.365,7.515-7.515C248.152,420.179,244.787,416.814,240.637,416.814z" fill="#3ac3ea"/>
	</g>
</g>
<g>
	<g>
		<path d="M280.047,288.564h-32.063c-4.15,0-7.515,3.365-7.515,7.515c0,4.15,3.365,7.515,7.515,7.515h32.063    c4.151,0,7.515-3.365,7.515-7.515C287.562,291.928,284.198,288.564,280.047,288.564z" fill="#3ac3ea"/>
	</g>
</g>
<g>
	<g>
		<path d="M239.387,74.296c-15.261-11-39.433-13.434-63.542,10.363c-24.11-23.797-48.281-21.363-63.542-10.363    c-19.909,14.35-30.705,47.248-15.042,73.351c16.833,28.055,72.717,57.649,75.088,58.895c2.168,1.14,4.823,1.14,6.993,0    c2.371-1.246,58.256-30.839,75.089-58.895C270.091,121.544,259.295,88.646,239.387,74.296z M241.541,139.913    c-12.483,20.808-53.433,44.609-65.697,51.418c-12.264-6.809-53.213-30.611-65.697-51.418    c-11.241-18.734-3.254-43.191,10.943-53.425c4.944-3.563,10.273-5.318,15.814-5.318c10.736,0,22.254,6.596,33.235,19.407    c2.953,3.446,8.458,3.446,11.411,0c16.648-19.422,34.525-24.557,49.049-14.089C244.796,96.72,252.782,121.179,241.541,139.913z" fill="#3ac3ea"/>
	</g>
</g>
<g>
</g>
<g>
</g>
<g>
</g>
<g>
</g>
<g>
</g>
<g>
</g>
<g>
</g>
<g>
</g>
<g>
</g>
<g>
</g>
<g>
</g>
<g>
</g>
<g>
</g>
<g>
</g>
<g>
</g>
</svg>
