<svg id="Layer_2" data-name="Layer 2" xmlns="http://www.w3.org/2000/svg" viewBox="0 0 774 181.15"><defs><style>.cls-1{fill:#1c70b3;}.cls-2{fill:#4b94cf;}.cls-3{fill:#3b8bca;}.cls-4{fill:#277cc0;}.cls-5{fill:#659fce;}.cls-6{fill:#7ac2e9;}.cls-7{fill:#8ec8e8;}.cls-8{fill:#acd4ea;}.cls-9{fill:#cde7f8;}.cls-10{fill:#e9f5fd;}.cls-11{fill:#d4eaf9;}.cls-12{fill:#dcf0fc;}.cls-13{fill:#57b4e5;}.cls-14{fill:#77c0e7;}.cls-15{fill:#9fcfe9;}.cls-16{fill:#44abe1;}.cls-17{fill:#88c6e8;}.cls-18{fill:#dbedfa;}</style></defs><title>homepage1</title><polygon class="cls-1" points="0 178.09 34.17 178.09 0 146.59 0 178.09"/><polygon class="cls-2" points="0 146.59 0 102.48 40.25 120.83 0 146.59"/><polygon class="cls-3" points="34.17 178.09 65.13 178.09 40.25 147.59 34.17 178.09"/><polygon class="cls-4" points="0 146.59 40.25 147.59 34.17 178.09 0 146.59"/><polygon class="cls-3" points="40.25 120.83 40.25 147.59 0 146.59 40.25 120.83"/><polygon class="cls-5" points="0 102.48 40.25 104.34 40.25 120.83 0 102.48"/><polygon class="cls-6" points="40.25 74.84 0 102.48 40.25 104.34 40.25 74.84"/><polygon class="cls-1" points="65.13 178.09 87.5 147.59 40.25 147.59 65.13 178.09"/><polygon class="cls-7" points="0 102.48 40.25 33.59 40.25 74.84 0 102.48"/><polygon class="cls-8" points="0 50.61 40.25 33.59 0 102.48 0 50.61"/><polygon class="cls-4" points="87.5 147.59 65.13 178.09 90.5 178.09 87.5 147.59"/><polygon class="cls-9" points="0 3.09 40.25 33.59 0 50.61 0 3.09"/><path class="cls-3" d="M124.66,381.87,142,348.1s-6.75,3.27-20.33,3.27Z" transform="translate(-34.16 -203.79)"/><polygon class="cls-10" points="40.25 33.59 32.47 3.09 0 3.09 40.25 33.59"/><polygon class="cls-11" points="72.37 33.59 32.47 3.09 40.25 33.59 72.37 33.59"/><polygon class="cls-12" points="85.5 3.09 72.37 33.59 32.47 3.09 85.5 3.09"/><path class="cls-1" d="M142,348.1l-17.33,33.77s31.58,1.46,52.12-12.37Z" transform="translate(-34.16 -203.79)"/><polygon class="cls-13" points="40.25 74.84 87.5 104.34 40.25 104.34 40.25 74.84"/><polygon class="cls-14" points="72.37 74.84 87.5 104.34 40.25 74.84 72.37 74.84"/><path class="cls-15" d="M128.66,277.11s-4.56,1.51-14,1.51h-8.13l15.13,29.5Z" transform="translate(-34.16 -203.79)"/><path class="cls-4" d="M142,348.1s11.92-3.65,11.92-18.23l22.87,39.63Z" transform="translate(-34.16 -203.79)"/><path class="cls-10" d="M119.66,206.87l13.72,33.52s-5.68-3-18.72-3h-8.13Z" transform="translate(-34.16 -203.79)"/><path class="cls-3" d="M153.91,329.87l40.75,4.25s1.56,22.42-17.88,35.38Z" transform="translate(-34.16 -203.79)"/><path class="cls-2" d="M186.16,306.75l-32.25,23.12,40.75,4.25S195.71,319.31,186.16,306.75Z" transform="translate(-34.16 -203.79)"/><path class="cls-13" d="M121.66,308.12a65.29,65.29,0,0,1,13.62,1.24s18.55,2.43,18.63,20.51l8.75-39Z" transform="translate(-34.16 -203.79)"/><path class="cls-16" d="M186.16,306.75l-32.25,23.12,8.75-39S176.81,294.28,186.16,306.75Z" transform="translate(-34.16 -203.79)"/><polygon class="cls-17" points="94.5 73.32 87.5 104.34 128.5 87.09 94.5 73.32"/><path class="cls-18" d="M133.38,240.39l29.13-25.08s-16.43-9.06-42.85-8.44Z" transform="translate(-34.16 -203.79)"/><path class="cls-8" d="M145.16,257.87s1.66,15.37-16.5,19.24l56-13.65Z" transform="translate(-34.16 -203.79)"/><path class="cls-15" d="M162.66,290.87a40.74,40.74,0,0,0,22-27.41l-56,13.65Z" transform="translate(-34.16 -203.79)"/><path class="cls-10" d="M133.38,240.39l46.56-9.76s-4.79-8.48-17.43-15.32Z" transform="translate(-34.16 -203.79)"/><path class="cls-9" d="M145.16,257.87l34.78-27.24s9.52,12.1,4.68,32.83Z" transform="translate(-34.16 -203.79)"/><path class="cls-18" d="M133.38,240.39s12.22,3.85,11.78,17.48l34.78-27.24Z" transform="translate(-34.16 -203.79)"/><path class="cls-12" d="M310.16,203.87A102.52,102.52,0,0,0,261,215.62l21.13,29.88Z" transform="translate(-34.16 -203.79)"/><path class="cls-10" d="M310.16,238.37s-15.54-.18-28,7.13l28-41.63Z" transform="translate(-34.16 -203.79)"/><path class="cls-10" d="M261,215.62S244.7,224,236.49,234.8l45.67,10.7Z" transform="translate(-34.16 -203.79)"/><path class="cls-9" d="M310.16,238.37l32.47-29.73s-17.72-5.62-32.47-4.77Z" transform="translate(-34.16 -203.79)"/><path class="cls-8" d="M282.16,245.5a48.64,48.64,0,0,0-19.63,19.87l-46.4,10.51Z" transform="translate(-34.16 -203.79)"/><path class="cls-9" d="M236.49,234.8s-16.85,17.39-20.36,41.08l66-30.38Z" transform="translate(-34.16 -203.79)"/><path class="cls-10" d="M342.63,208.64a97.24,97.24,0,0,1,31.26,16.82l-63.73,12.91Z" transform="translate(-34.16 -203.79)"/><path class="cls-18" d="M357.78,265.37s-12-26.23-47.62-27l63.73-12.91Z" transform="translate(-34.16 -203.79)"/><path class="cls-7" d="M262.53,265.37a59,59,0,0,0-7.12,29l-39.28-18.49Z" transform="translate(-34.16 -203.79)"/><path class="cls-13" d="M218.31,321.66l37.1-27.29-39.28-18.49S211.09,296.44,218.31,321.66Z" transform="translate(-34.16 -203.79)"/><path class="cls-9" d="M357.78,265.37,393.41,248s-8.8-15-19.52-22.54Z" transform="translate(-34.16 -203.79)"/><path class="cls-4" d="M255.41,294.37s-.32,16.68,7.12,29l-10.62,44.17Z" transform="translate(-34.16 -203.79)"/><path class="cls-5" d="M218.31,321.66s7.49,30.11,33.6,45.88l3.5-73.17Z" transform="translate(-34.16 -203.79)"/><path class="cls-15" d="M357.78,265.37a63.63,63.63,0,0,1,7.13,29L393.41,248Z" transform="translate(-34.16 -203.79)"/><path class="cls-3" d="M310.16,350.37s-30.85,1.88-47.63-27l-10.62,44.17Z" transform="translate(-34.16 -203.79)"/><path class="cls-1" d="M310.16,384.87v-34.5l-58.25,17.17S275.31,385.67,310.16,384.87Z" transform="translate(-34.16 -203.79)"/><path class="cls-4" d="M364.91,369.5s-20.09,15.8-54.75,15.37v-34.5Z" transform="translate(-34.16 -203.79)"/><path class="cls-3" d="M357.78,323.37s-13.33,27.12-47.62,27l54.75,19.13Z" transform="translate(-34.16 -203.79)"/><path class="cls-13" d="M364.91,294.37s-.35,19.59-7.13,29L402,321.66Z" transform="translate(-34.16 -203.79)"/><path class="cls-17" d="M393.41,248s20.92,30.57,8.56,73.66l-37.06-27.29Z" transform="translate(-34.16 -203.79)"/><path class="cls-16" d="M357.78,323.37l7.13,46.13S392,356.26,402,321.66Z" transform="translate(-34.16 -203.79)"/><polygon class="cls-1" points="402.23 178.08 436.4 178.08 402.23 146.58 402.23 178.08"/><polygon class="cls-2" points="402.23 146.58 402.23 102.47 442.48 120.83 402.23 146.58"/><polygon class="cls-3" points="436.4 178.08 467.36 178.08 442.48 147.58 436.4 178.08"/><polygon class="cls-4" points="402.23 146.58 442.48 147.58 436.4 178.08 402.23 146.58"/><polygon class="cls-3" points="442.48 120.83 442.48 147.58 402.23 146.58 442.48 120.83"/><polygon class="cls-5" points="402.23 102.47 442.48 104.33 442.48 120.83 402.23 102.47"/><polygon class="cls-6" points="442.48 74.83 402.23 102.47 442.48 104.33 442.48 74.83"/><polygon class="cls-1" points="467.36 178.08 489.73 147.58 442.48 147.58 467.36 178.08"/><polygon class="cls-7" points="402.23 102.47 442.48 33.58 442.48 74.83 402.23 102.47"/><polygon class="cls-8" points="402.23 50.6 442.48 33.58 402.23 102.47 402.23 50.6"/><polygon class="cls-4" points="489.73 147.58 467.36 178.08 492.73 178.08 489.73 147.58"/><polygon class="cls-9" points="402.23 3.08 442.48 33.58 402.23 50.6 402.23 3.08"/><path class="cls-3" d="M526.89,381.87l17.33-33.77s-6.75,3.27-20.33,3.27Z" transform="translate(-34.16 -203.79)"/><polygon class="cls-10" points="442.48 33.58 434.7 3.08 402.23 3.08 442.48 33.58"/><polygon class="cls-11" points="474.6 33.58 434.7 3.08 442.48 33.58 474.6 33.58"/><polygon class="cls-12" points="487.73 3.08 474.6 33.58 434.7 3.08 487.73 3.08"/><path class="cls-1" d="M544.22,348.1l-17.33,33.77s31.58,1.45,52.13-12.38Z" transform="translate(-34.16 -203.79)"/><polygon class="cls-13" points="442.48 74.83 489.73 104.33 442.48 104.33 442.48 74.83"/><polygon class="cls-14" points="474.6 74.83 489.73 104.33 442.48 74.83 474.6 74.83"/><path class="cls-15" d="M530.89,277.1s-4.56,1.52-14,1.52h-8.13l15.13,29.5Z" transform="translate(-34.16 -203.79)"/><path class="cls-4" d="M544.22,348.1s11.92-3.66,11.92-18.23L579,369.49Z" transform="translate(-34.16 -203.79)"/><path class="cls-10" d="M521.89,206.87l13.73,33.51s-5.69-3-18.73-3h-8.13Z" transform="translate(-34.16 -203.79)"/><path class="cls-3" d="M556.14,329.87l40.75,4.25s1.56,22.41-17.87,35.37Z" transform="translate(-34.16 -203.79)"/><path class="cls-2" d="M588.39,306.74l-32.25,23.13,40.75,4.25S597.94,319.3,588.39,306.74Z" transform="translate(-34.16 -203.79)"/><path class="cls-13" d="M523.89,308.12a65.65,65.65,0,0,1,13.62,1.23s18.55,2.43,18.63,20.52l8.75-39Z" transform="translate(-34.16 -203.79)"/><path class="cls-16" d="M588.39,306.74l-32.25,23.13,8.75-39S579,294.28,588.39,306.74Z" transform="translate(-34.16 -203.79)"/><polygon class="cls-17" points="496.73 73.32 489.73 104.33 530.73 87.08 496.73 73.32"/><path class="cls-18" d="M535.62,240.38l29.13-25.08s-16.44-9.06-42.86-8.43Z" transform="translate(-34.16 -203.79)"/><path class="cls-8" d="M547.39,257.87s1.66,15.37-16.5,19.23l56-13.64Z" transform="translate(-34.16 -203.79)"/><path class="cls-15" d="M564.89,290.87a40.74,40.74,0,0,0,22-27.41l-56,13.64Z" transform="translate(-34.16 -203.79)"/><path class="cls-10" d="M535.62,240.38l46.55-9.75s-4.79-8.49-17.42-15.33Z" transform="translate(-34.16 -203.79)"/><path class="cls-9" d="M547.39,257.87l34.78-27.24s9.52,12.09,4.68,32.83Z" transform="translate(-34.16 -203.79)"/><path class="cls-18" d="M535.62,240.38s12.22,3.85,11.77,17.49l34.78-27.24Z" transform="translate(-34.16 -203.79)"/><path class="cls-12" d="M712.45,203.91a102.38,102.38,0,0,0-49.13,11.75l21.13,29.87Z" transform="translate(-34.16 -203.79)"/><path class="cls-10" d="M712.45,238.41s-15.54-.19-28,7.12l28-41.62Z" transform="translate(-34.16 -203.79)"/><path class="cls-10" d="M663.32,215.66S647,224,638.78,234.83l45.67,10.7Z" transform="translate(-34.16 -203.79)"/><path class="cls-9" d="M712.45,238.41l32.47-29.74s-17.72-5.62-32.47-4.76Z" transform="translate(-34.16 -203.79)"/><path class="cls-8" d="M684.45,245.53a48.63,48.63,0,0,0-19.63,19.88l-46.4,10.5Z" transform="translate(-34.16 -203.79)"/><path class="cls-9" d="M638.78,234.83s-16.85,17.39-20.36,41.08l66-30.38Z" transform="translate(-34.16 -203.79)"/><path class="cls-10" d="M744.92,208.67a97.24,97.24,0,0,1,31.26,16.82l-63.73,12.92Z" transform="translate(-34.16 -203.79)"/><path class="cls-18" d="M760.07,265.41s-12-26.24-47.62-27l63.73-12.92Z" transform="translate(-34.16 -203.79)"/><path class="cls-7" d="M664.82,265.41a58.86,58.86,0,0,0-7.12,29l-39.28-18.5Z" transform="translate(-34.16 -203.79)"/><path class="cls-13" d="M620.59,321.69l37.11-27.28-39.28-18.5S613.37,296.47,620.59,321.69Z" transform="translate(-34.16 -203.79)"/><path class="cls-9" d="M760.07,265.41,795.7,248s-8.8-15-19.52-22.54Z" transform="translate(-34.16 -203.79)"/><path class="cls-4" d="M657.7,294.41s-.33,16.67,7.12,29l-10.63,44.16Z" transform="translate(-34.16 -203.79)"/><path class="cls-5" d="M620.59,321.69s7.5,30.11,33.6,45.88l3.51-73.16Z" transform="translate(-34.16 -203.79)"/><path class="cls-15" d="M760.07,265.41a63.58,63.58,0,0,1,7.13,29L795.7,248Z" transform="translate(-34.16 -203.79)"/><path class="cls-3" d="M712.45,350.41s-30.86,1.87-47.63-27l-10.63,44.16Z" transform="translate(-34.16 -203.79)"/><path class="cls-1" d="M712.45,384.91v-34.5l-58.26,17.16S677.59,385.7,712.45,384.91Z" transform="translate(-34.16 -203.79)"/><path class="cls-4" d="M767.2,369.53s-20.09,15.8-54.75,15.38v-34.5Z" transform="translate(-34.16 -203.79)"/><path class="cls-3" d="M760.07,323.41s-13.34,27.12-47.62,27l54.75,19.12Z" transform="translate(-34.16 -203.79)"/><path class="cls-13" d="M767.2,294.41s-.35,19.58-7.13,29l44.19-1.72Z" transform="translate(-34.16 -203.79)"/><path class="cls-17" d="M795.7,248s20.91,30.57,8.56,73.66L767.2,294.41Z" transform="translate(-34.16 -203.79)"/><path class="cls-16" d="M760.07,323.41l7.13,46.12s27.11-13.24,37.06-47.84Z" transform="translate(-34.16 -203.79)"/></svg>