<svg id="Layer_3" data-name="Layer 3" xmlns="http://www.w3.org/2000/svg" viewBox="0 0 774.92 184.22"><defs><style>.cls-1{fill:#fff;}.cls-2,.cls-25{font-size:9px;fill:#313843;font-family:Montserrat-Light, Montserrat;}.cls-25,.cls-3{letter-spacing:0em;}.cls-4{letter-spacing:-0.02em;}.cls-5{letter-spacing:-0.02em;}.cls-6{letter-spacing:0.01em;}.cls-7{letter-spacing:-0.02em;}.cls-8{letter-spacing:0em;}.cls-9{letter-spacing:-0.01em;}.cls-10{letter-spacing:-0.02em;}.cls-11{letter-spacing:-0.01em;}.cls-12{letter-spacing:0em;}.cls-13{letter-spacing:0.01em;}.cls-14{letter-spacing:0.03em;}.cls-15{letter-spacing:-0.01em;}.cls-16{letter-spacing:-0.01em;}.cls-17{letter-spacing:-0.02em;}.cls-18{letter-spacing:-0.07em;}.cls-19{letter-spacing:0em;}.cls-20{letter-spacing:0em;}.cls-21{letter-spacing:-0.01em;}.cls-22{letter-spacing:0.01em;}.cls-23{letter-spacing:-0.01em;}.cls-24{letter-spacing:0em;}.cls-26{letter-spacing:-0.02em;}.cls-27{letter-spacing:-0.03em;}.cls-28{letter-spacing:-0.01em;}.cls-29{letter-spacing:0em;}.cls-30{letter-spacing:0.01em;}.cls-31{letter-spacing:0.03em;}.cls-32{letter-spacing:-0.01em;}.cls-33{letter-spacing:0em;}.cls-34{letter-spacing:-0.02em;}.cls-35{letter-spacing:0.01em;}.cls-36{letter-spacing:-0.04em;}.cls-37{letter-spacing:-0.02em;}.cls-38{letter-spacing:0.04em;}.cls-39{letter-spacing:-0.01em;}.cls-40{letter-spacing:0.01em;}.cls-41{letter-spacing:0.01em;}.cls-42{letter-spacing:0.03em;}.cls-43{letter-spacing:0.02em;}.cls-44{letter-spacing:-0.01em;}.cls-45{letter-spacing:-0.01em;}.cls-46{letter-spacing:0.03em;}.cls-47{letter-spacing:-0.03em;}.cls-48{letter-spacing:0.03em;}.cls-49{letter-spacing:0.01em;}.cls-50{letter-spacing:-0.01em;}</style></defs><title>homepage2</title><polygon class="cls-1" points="0 178.86 34.17 178.86 0 147.36 0 178.86"/><polygon class="cls-1" points="0 147.36 0 103.25 40.25 121.61 0 147.36"/><polygon class="cls-1" points="34.17 178.86 65.13 178.86 40.25 148.36 34.17 178.86"/><polygon class="cls-1" points="0 147.36 40.25 148.36 34.17 178.86 0 147.36"/><polygon class="cls-1" points="40.25 121.61 40.25 148.36 0 147.36 40.25 121.61"/><polygon class="cls-1" points="0 103.25 40.25 105.11 40.25 121.61 0 103.25"/><polygon class="cls-1" points="40.25 75.61 0 103.25 40.25 105.11 40.25 75.61"/><polygon class="cls-1" points="65.13 178.86 87.5 148.36 40.25 148.36 65.13 178.86"/><polygon class="cls-1" points="0 103.25 40.25 34.36 40.25 75.61 0 103.25"/><polygon class="cls-1" points="0 51.38 40.25 34.36 0 103.25 0 51.38"/><polygon class="cls-1" points="87.5 148.36 65.13 178.86 90.5 178.86 87.5 148.36"/><polygon class="cls-1" points="0 3.86 40.25 34.36 0 51.38 0 3.86"/><path class="cls-1" d="M124.66,381.87,142,348.1s-6.75,3.27-20.33,3.27Z" transform="translate(-34.16 -203.01)"/><polygon class="cls-1" points="40.25 34.36 32.47 3.86 0 3.86 40.25 34.36"/><polygon class="cls-1" points="72.37 34.36 32.47 3.86 40.25 34.36 72.37 34.36"/><polygon class="cls-1" points="85.5 3.86 72.37 34.36 32.47 3.86 85.5 3.86"/><path class="cls-1" d="M142,348.1l-17.33,33.77s31.58,1.46,52.12-12.37Z" transform="translate(-34.16 -203.01)"/><polygon class="cls-1" points="40.25 75.61 87.5 105.11 40.25 105.11 40.25 75.61"/><polygon class="cls-1" points="72.37 75.61 87.5 105.11 40.25 75.61 72.37 75.61"/><path class="cls-1" d="M128.66,277.11s-4.56,1.51-14,1.51h-8.13l15.13,29.5Z" transform="translate(-34.16 -203.01)"/><path class="cls-1" d="M142,348.1s11.92-3.65,11.92-18.23l22.87,39.63Z" transform="translate(-34.16 -203.01)"/><path class="cls-1" d="M119.66,206.87l13.72,33.52s-5.68-3-18.72-3h-8.13Z" transform="translate(-34.16 -203.01)"/><path class="cls-1" d="M153.91,329.87l40.75,4.25s1.56,22.42-17.88,35.38Z" transform="translate(-34.16 -203.01)"/><path class="cls-1" d="M186.16,306.75l-32.25,23.12,40.75,4.25S195.71,319.31,186.16,306.75Z" transform="translate(-34.16 -203.01)"/><path class="cls-1" d="M121.66,308.12a65.29,65.29,0,0,1,13.62,1.24s18.55,2.43,18.63,20.51l8.75-39Z" transform="translate(-34.16 -203.01)"/><path class="cls-1" d="M186.16,306.75l-32.25,23.12,8.75-39S176.81,294.28,186.16,306.75Z" transform="translate(-34.16 -203.01)"/><polygon class="cls-1" points="94.5 74.1 87.5 105.11 128.5 87.86 94.5 74.1"/><path class="cls-1" d="M133.38,240.39l29.13-25.08s-16.43-9.06-42.85-8.44Z" transform="translate(-34.16 -203.01)"/><path class="cls-1" d="M145.16,257.87s1.66,15.37-16.5,19.24l56-13.65Z" transform="translate(-34.16 -203.01)"/><path class="cls-1" d="M162.66,290.87a40.74,40.74,0,0,0,22-27.41l-56,13.65Z" transform="translate(-34.16 -203.01)"/><path class="cls-1" d="M133.38,240.39l46.56-9.76s-4.79-8.48-17.43-15.32Z" transform="translate(-34.16 -203.01)"/><path class="cls-1" d="M145.16,257.87l34.78-27.24s9.52,12.1,4.68,32.83Z" transform="translate(-34.16 -203.01)"/><path class="cls-1" d="M133.38,240.39s12.22,3.85,11.78,17.48l34.78-27.24Z" transform="translate(-34.16 -203.01)"/><path class="cls-1" d="M310.16,203.87A102.52,102.52,0,0,0,261,215.62l21.13,29.88Z" transform="translate(-34.16 -203.01)"/><path class="cls-1" d="M310.16,238.37s-15.54-.18-28,7.13l28-41.63Z" transform="translate(-34.16 -203.01)"/><path class="cls-1" d="M261,215.62S244.7,224,236.49,234.8l45.67,10.7Z" transform="translate(-34.16 -203.01)"/><path class="cls-1" d="M310.16,238.37l32.47-29.73s-17.72-5.62-32.47-4.77Z" transform="translate(-34.16 -203.01)"/><path class="cls-1" d="M282.16,245.5a48.64,48.64,0,0,0-19.63,19.87l-46.4,10.51Z" transform="translate(-34.16 -203.01)"/><path class="cls-1" d="M236.49,234.8s-16.85,17.39-20.36,41.08l66-30.38Z" transform="translate(-34.16 -203.01)"/><path class="cls-1" d="M342.63,208.64a97.24,97.24,0,0,1,31.26,16.82l-63.73,12.91Z" transform="translate(-34.16 -203.01)"/><path class="cls-1" d="M357.78,265.37s-12-26.23-47.62-27l63.73-12.91Z" transform="translate(-34.16 -203.01)"/><path class="cls-1" d="M262.53,265.37a59,59,0,0,0-7.12,29l-39.28-18.49Z" transform="translate(-34.16 -203.01)"/><path class="cls-1" d="M218.31,321.66l37.1-27.29-39.28-18.49S211.08,296.44,218.31,321.66Z" transform="translate(-34.16 -203.01)"/><path class="cls-1" d="M357.78,265.37,393.41,248s-8.8-15-19.52-22.54Z" transform="translate(-34.16 -203.01)"/><path class="cls-1" d="M255.41,294.37s-.32,16.68,7.12,29l-10.62,44.17Z" transform="translate(-34.16 -203.01)"/><path class="cls-1" d="M218.31,321.66s7.49,30.11,33.6,45.88l3.5-73.17Z" transform="translate(-34.16 -203.01)"/><path class="cls-1" d="M357.78,265.37a63.63,63.63,0,0,1,7.13,29L393.41,248Z" transform="translate(-34.16 -203.01)"/><path class="cls-1" d="M310.16,350.37s-30.85,1.88-47.63-27l-10.62,44.17Z" transform="translate(-34.16 -203.01)"/><path class="cls-1" d="M310.16,384.87v-34.5l-58.25,17.17S275.31,385.67,310.16,384.87Z" transform="translate(-34.16 -203.01)"/><path class="cls-1" d="M364.91,369.5s-20.09,15.8-54.75,15.37v-34.5Z" transform="translate(-34.16 -203.01)"/><path class="cls-1" d="M357.78,323.37s-13.33,27.12-47.62,27l54.75,19.13Z" transform="translate(-34.16 -203.01)"/><path class="cls-1" d="M364.91,294.37s-.35,19.59-7.13,29L402,321.66Z" transform="translate(-34.16 -203.01)"/><path class="cls-1" d="M393.41,248s20.92,30.57,8.56,73.66l-37.06-27.29Z" transform="translate(-34.16 -203.01)"/><path class="cls-1" d="M357.78,323.37l7.13,46.13S392,356.26,402,321.66Z" transform="translate(-34.16 -203.01)"/><polygon class="cls-1" points="402.23 178.85 436.4 178.85 402.23 147.35 402.23 178.85"/><polygon class="cls-1" points="402.23 147.35 402.23 103.25 442.48 121.6 402.23 147.35"/><polygon class="cls-1" points="436.4 178.85 467.36 178.85 442.48 148.35 436.4 178.85"/><polygon class="cls-1" points="402.23 147.35 442.48 148.35 436.4 178.85 402.23 147.35"/><polygon class="cls-1" points="442.48 121.6 442.48 148.35 402.23 147.35 442.48 121.6"/><polygon class="cls-1" points="402.23 103.25 442.48 105.1 442.48 121.6 402.23 103.25"/><polygon class="cls-1" points="442.48 75.6 402.23 103.25 442.48 105.1 442.48 75.6"/><polygon class="cls-1" points="467.36 178.85 489.73 148.35 442.48 148.35 467.36 178.85"/><polygon class="cls-1" points="402.23 103.25 442.48 34.35 442.48 75.6 402.23 103.25"/><polygon class="cls-1" points="402.23 51.38 442.48 34.35 402.23 103.25 402.23 51.38"/><polygon class="cls-1" points="489.73 148.35 467.36 178.85 492.73 178.85 489.73 148.35"/><polygon class="cls-1" points="402.23 3.85 442.48 34.35 402.23 51.38 402.23 3.85"/><path class="cls-1" d="M526.89,381.87l17.33-33.77s-6.75,3.27-20.33,3.27Z" transform="translate(-34.16 -203.01)"/><polygon class="cls-1" points="442.48 34.35 434.7 3.85 402.23 3.85 442.48 34.35"/><polygon class="cls-1" points="474.6 34.35 434.7 3.85 442.48 34.35 474.6 34.35"/><polygon class="cls-1" points="487.73 3.85 474.6 34.35 434.7 3.85 487.73 3.85"/><path class="cls-1" d="M544.22,348.1l-17.33,33.77s31.58,1.45,52.12-12.38Z" transform="translate(-34.16 -203.01)"/><polygon class="cls-1" points="442.48 75.6 489.73 105.1 442.48 105.1 442.48 75.6"/><polygon class="cls-1" points="474.6 75.6 489.73 105.1 442.48 75.6 474.6 75.6"/><path class="cls-1" d="M530.89,277.1s-4.56,1.52-14,1.52h-8.13l15.13,29.5Z" transform="translate(-34.16 -203.01)"/><path class="cls-1" d="M544.22,348.1s11.92-3.66,11.92-18.23L579,369.49Z" transform="translate(-34.16 -203.01)"/><path class="cls-1" d="M521.89,206.87l13.73,33.51s-5.69-3-18.73-3h-8.13Z" transform="translate(-34.16 -203.01)"/><path class="cls-1" d="M556.14,329.87l40.75,4.25s1.56,22.41-17.88,35.37Z" transform="translate(-34.16 -203.01)"/><path class="cls-1" d="M588.39,306.74l-32.25,23.13,40.75,4.25S597.94,319.3,588.39,306.74Z" transform="translate(-34.16 -203.01)"/><path class="cls-1" d="M523.89,308.12a65.65,65.65,0,0,1,13.62,1.23s18.55,2.43,18.63,20.52l8.75-39Z" transform="translate(-34.16 -203.01)"/><path class="cls-1" d="M588.39,306.74l-32.25,23.13,8.75-39S579,294.28,588.39,306.74Z" transform="translate(-34.16 -203.01)"/><polygon class="cls-1" points="496.73 74.09 489.73 105.1 530.73 87.85 496.73 74.09"/><path class="cls-1" d="M535.62,240.38l29.13-25.08s-16.44-9.06-42.86-8.43Z" transform="translate(-34.16 -203.01)"/><path class="cls-1" d="M547.39,257.87s1.66,15.37-16.5,19.23l56-13.64Z" transform="translate(-34.16 -203.01)"/><path class="cls-1" d="M564.89,290.87a40.74,40.74,0,0,0,22-27.41l-56,13.64Z" transform="translate(-34.16 -203.01)"/><path class="cls-1" d="M535.62,240.38l46.55-9.75s-4.79-8.49-17.42-15.33Z" transform="translate(-34.16 -203.01)"/><path class="cls-1" d="M547.39,257.87l34.78-27.24s9.52,12.09,4.68,32.83Z" transform="translate(-34.16 -203.01)"/><path class="cls-1" d="M535.62,240.38s12.22,3.85,11.77,17.49l34.78-27.24Z" transform="translate(-34.16 -203.01)"/><path class="cls-1" d="M712.45,203.91a102.38,102.38,0,0,0-49.13,11.75l21.13,29.87Z" transform="translate(-34.16 -203.01)"/><path class="cls-1" d="M712.45,238.41s-15.54-.19-28,7.12l28-41.62Z" transform="translate(-34.16 -203.01)"/><path class="cls-1" d="M663.32,215.66S647,224,638.78,234.83l45.67,10.7Z" transform="translate(-34.16 -203.01)"/><path class="cls-1" d="M712.45,238.41l32.47-29.74s-17.72-5.62-32.47-4.76Z" transform="translate(-34.16 -203.01)"/><path class="cls-1" d="M684.45,245.53a48.63,48.63,0,0,0-19.63,19.88l-46.4,10.5Z" transform="translate(-34.16 -203.01)"/><path class="cls-1" d="M638.78,234.83s-16.85,17.39-20.36,41.08l66-30.38Z" transform="translate(-34.16 -203.01)"/><path class="cls-1" d="M744.92,208.67a97.24,97.24,0,0,1,31.26,16.82l-63.73,12.92Z" transform="translate(-34.16 -203.01)"/><path class="cls-1" d="M760.07,265.41s-12-26.24-47.62-27l63.73-12.92Z" transform="translate(-34.16 -203.01)"/><path class="cls-1" d="M664.82,265.41a58.86,58.86,0,0,0-7.12,29l-39.28-18.5Z" transform="translate(-34.16 -203.01)"/><path class="cls-1" d="M620.59,321.69l37.11-27.28-39.28-18.5S613.37,296.47,620.59,321.69Z" transform="translate(-34.16 -203.01)"/><path class="cls-1" d="M760.07,265.41,795.7,248s-8.8-15-19.52-22.54Z" transform="translate(-34.16 -203.01)"/><path class="cls-1" d="M657.7,294.41s-.33,16.67,7.12,29l-10.63,44.16Z" transform="translate(-34.16 -203.01)"/><path class="cls-1" d="M620.59,321.69s7.5,30.11,33.6,45.88l3.51-73.16Z" transform="translate(-34.16 -203.01)"/><path class="cls-1" d="M760.07,265.41a63.58,63.58,0,0,1,7.13,29L795.7,248Z" transform="translate(-34.16 -203.01)"/><path class="cls-1" d="M712.45,350.41s-30.86,1.87-47.63-27l-10.63,44.16Z" transform="translate(-34.16 -203.01)"/><path class="cls-1" d="M712.45,384.91v-34.5l-58.26,17.16S677.59,385.7,712.45,384.91Z" transform="translate(-34.16 -203.01)"/><path class="cls-1" d="M767.2,369.53s-20.09,15.8-54.75,15.38v-34.5Z" transform="translate(-34.16 -203.01)"/><path class="cls-1" d="M760.07,323.41s-13.34,27.12-47.62,27l54.75,19.12Z" transform="translate(-34.16 -203.01)"/><path class="cls-1" d="M767.2,294.41s-.35,19.58-7.13,29l44.19-1.72Z" transform="translate(-34.16 -203.01)"/><path class="cls-1" d="M795.7,248s20.91,30.57,8.56,73.66L767.2,294.41Z" transform="translate(-34.16 -203.01)"/><path class="cls-1" d="M760.07,323.41l7.13,46.12s27.11-13.24,37.06-47.84Z" transform="translate(-34.16 -203.01)"/><text class="cls-2" transform="translate(0 11.57)">$(this).<tspan class="cls-3" x="29.36" y="0">h</tspan><tspan class="cls-4" x="35.42" y="0">ov</tspan><tspan x="45.49" y="0">e</tspan><tspan class="cls-5" x="50.86" y="0">r</tspan><tspan x="54.25" y="0">(fu</tspan><tspan class="cls-3" x="66.11" y="0">n</tspan><tspan class="cls-6" x="72.18" y="0">c</tspan><tspan x="77.23" y="0">tion() { $</tspan></text><text class="cls-2" transform="translate(0 21.86)">$(this)<tspan class="cls-7" x="27.56" y="0">.</tspan><tspan x="29.2" y="0">css(“</tspan><tspan class="cls-8" x="48.87" y="0">b</tspan><tspan class="cls-3" x="54.93" y="0">a</tspan><tspan class="cls-9" x="60.18" y="0">c</tspan><tspan class="cls-10" x="65.1" y="0">k</tspan><tspan x="70.2" y="0">g</tspan><tspan class="cls-11" x="76.34" y="0">r</tspan><tspan class="cls-12" x="79.76" y="0">ou</tspan><tspan class="cls-3" x="91.36" y="0">n</tspan><tspan x="97.42" y="0">d</tspan><tspan class="cls-13" x="103.5" y="0">-</tspan><tspan class="cls-9" x="107.02" y="0">c</tspan><tspan x="111.93" y="0">olo</tspan><tspan class="cls-14" x="125.44" y="0">r</tspan><tspan x="129.27" y="0">”</tspan></text><text class="cls-2" transform="translate(0 32.52)">$(this)<tspan class="cls-7" x="27.56" y="0">.</tspan><tspan class="cls-9" x="29.2" y="0">c</tspan><tspan class="cls-12" x="34.12" y="0">li</tspan><tspan class="cls-9" x="38.82" y="0">c</tspan><tspan x="43.73" y="0">k(fu</tspan><tspan class="cls-3" x="60.88" y="0">n</tspan><tspan class="cls-6" x="66.95" y="0">c</tspan><tspan x="72" y="0">tion(</tspan><tspan class="cls-15" x="92.46" y="0">e</tspan><tspan class="cls-16" x="97.74" y="0">v</tspan><tspan x="102.36" y="0">ent) { if (e</tspan></text><text class="cls-2" transform="translate(0 41.25)">cus<tspan class="cls-17" x="15.32" y="0">t</tspan><tspan class="cls-12" x="18.73" y="0">om</tspan><tspan class="cls-7" x="33.88" y="0">.</tspan><tspan x="35.53" y="0">c</tspan></text><text class="cls-2" transform="translate(102.7 42.25)">&lt;p&gt;Hi !&lt;<tspan class="cls-18" x="35.69" y="0">/</tspan><tspan class="cls-19" x="37.95" y="0">p&gt;</tspan></text><text class="cls-2" transform="translate(0 49.38)">o<tspan class="cls-20" x="5.58" y="0">p</tspan><tspan class="cls-3" x="11.64" y="0">a</tspan><tspan x="16.89" y="0">ci</tspan><tspan class="cls-21" x="24.24" y="0">t</tspan><tspan class="cls-22" x="27.73" y="0">y</tspan><tspan x="32.56" y="0">: 1</tspan></text><text class="cls-2" transform="translate(0 57.96)">st<tspan class="cls-11" x="7.88" y="0">r</tspan><tspan class="cls-12" x="11.3" y="0">o</tspan><tspan class="cls-10" x="16.88" y="0">k</tspan><tspan x="21.99" y="0">e: #1</tspan></text><text class="cls-2" transform="translate(0 66.72)">wi<tspan class="cls-23" x="10.11" y="0">d</tspan><tspan x="16.12" y="0">th: </tspan><tspan class="cls-24" x="29.87" y="0">3</tspan><tspan x="34.85" y="0">3</tspan></text><text class="cls-2" transform="translate(109 50.33)">&lt;div&gt;&lt;<tspan class="cls-18" x="28.54" y="0">/</tspan><tspan x="30.8" y="0">div</tspan></text><text class="cls-2" transform="translate(110.43 58.96)">&lt;n<tspan class="cls-21" x="11.18" y="0">a</tspan><tspan x="16.33" y="0">v&gt;&lt;a&gt;</tspan></text><text class="cls-2" transform="translate(108.52 67.81)">&lt;div&gt;&lt;<tspan class="cls-18" x="28.54" y="0">/</tspan><tspan x="30.8" y="0">di</tspan></text><text class="cls-25" transform="translate(0 74.61)">h<tspan class="cls-12" x="6.07" y="0">eight: 31</tspan></text><text class="cls-2" transform="translate(103.58 74.61)"><tspan class="cls-26">v</tspan><tspan x="4.61" y="0">ar x, </tspan><tspan class="cls-27" x="24.5" y="0">y</tspan><tspan x="28.94" y="0">, z;</tspan></text><text class="cls-2" transform="translate(0 84.16)">set<tspan class="cls-28" x="13.26" y="0">T</tspan><tspan x="18.2" y="0">i</tspan><tspan class="cls-29" x="20.55" y="0">m</tspan><tspan x="30.13" y="0">eout(fu</tspan><tspan class="cls-3" x="62.55" y="0">n</tspan><tspan class="cls-6" x="68.61" y="0">c</tspan><tspan x="73.66" y="0">tion() { $(“#id”</tspan></text><text class="cls-2" transform="translate(0 93.75)">d3.sele<tspan class="cls-6" x="30.29" y="0">c</tspan><tspan x="35.34" y="0">tAll(“#id”)</tspan><tspan class="cls-7" x="76.74" y="0">.</tspan><tspan class="cls-19" x="78.39" y="0">data(datase</tspan></text><text class="cls-2" transform="translate(0 103.74)"><tspan class="cls-7">.</tspan><tspan x="1.65" y="0">en</tspan><tspan class="cls-17" x="13.08" y="0">t</tspan><tspan class="cls-12" x="16.49" y="0">e</tspan><tspan class="cls-7" x="21.86" y="0">r</tspan><tspan x="25.25" y="0">()</tspan><tspan class="cls-30" x="31.04" y="0">.</tspan><tspan class="cls-12" x="32.93" y="0">a</tspan><tspan class="cls-28" x="38.18" y="0">t</tspan><tspan x="41.63" y="0">t</tspan><tspan class="cls-7" x="45.22" y="0">r</tspan><tspan class="cls-12" x="48.61" y="0">(</tspan><tspan class="cls-31" x="51.5" y="0">“</tspan><tspan x="54.98" y="0">wi</tspan><tspan class="cls-32" x="65.09" y="0">d</tspan><tspan x="71.1" y="0">t</tspan><tspan class="cls-9" x="74.68" y="0">h</tspan><tspan class="cls-26" x="80.66" y="0">”</tspan><tspan class="cls-19" x="83.69" y="0">, 1</tspan><tspan class="cls-33" x="90.98" y="0">2</tspan><tspan x="96.01" y="0">0</tspan><tspan class="cls-34" x="101.93" y="0">p</tspan><tspan x="107.84" y="0">x)</tspan><tspan class="cls-13" x="115.41" y="0">.</tspan><tspan x="117.3" y="0">a</tspan><tspan class="cls-28" x="122.54" y="0">t</tspan><tspan x="126" y="0">t</tspan><tspan class="cls-7" x="129.58" y="0">r</tspan><tspan class="cls-12" x="132.97" y="0">(“</tspan><tspan class="cls-3" x="139.04" y="0">h</tspan><tspan class="cls-12" x="145.11" y="0">e</tspan></text><text class="cls-2" transform="translate(111 112.43)">&lt;<tspan class="cls-21" x="5.12" y="0">s</tspan><tspan class="cls-4" x="9.33" y="0">v</tspan><tspan class="cls-19" x="13.95" y="0">g wi</tspan><tspan class="cls-23" x="32.51" y="0">d</tspan><tspan x="38.52" y="0">t</tspan></text><text class="cls-2" transform="translate(117.71 122.14)">&lt;<tspan class="cls-28" x="5.12" y="0">r</tspan><tspan class="cls-12" x="8.54" y="0">e</tspan><tspan class="cls-35" x="13.91" y="0">c</tspan><tspan class="cls-12" x="18.96" y="0">t x=</tspan><tspan class="cls-36" x="34.65" y="0">“</tspan><tspan x="37.48" y="0">4</tspan></text><text class="cls-2" transform="translate(119.75 131.39)">&lt;ci<tspan class="cls-28" x="12.46" y="0">r</tspan><tspan class="cls-9" x="15.88" y="0">c</tspan><tspan x="20.8" y="0">le </tspan><tspan class="cls-37" x="30.83" y="0">c</tspan><tspan x="35.66" y="0">x</tspan></text><text class="cls-2" transform="translate(117.71 139.37)">&lt;g = <tspan class="cls-9" x="21.01" y="0">c</tspan><tspan class="cls-19" x="25.92" y="0">lass</tspan></text><text class="cls-2" transform="translate(108 148.36)">.<tspan class="cls-11" x="1.8" y="0">r</tspan><tspan class="cls-4" x="5.22" y="0">e</tspan><tspan class="cls-3" x="10.46" y="0">a</tspan><tspan x="15.71" y="0">dy(fu</tspan><tspan class="cls-3" x="38.4" y="0">n</tspan><tspan x="44.47" y="0">c</tspan></text><text class="cls-2" transform="translate(0 112.43)">appe<tspan class="cls-3" x="22.77" y="0">n</tspan><tspan x="28.84" y="0">d()</tspan></text><text class="cls-2" transform="translate(0 157.94)">if($(this)<tspan class="cls-30" x="35.75" y="0">.</tspan><tspan x="37.64" y="0">a</tspan><tspan class="cls-28" x="42.88" y="0">t</tspan><tspan x="46.34" y="0">t</tspan><tspan class="cls-5" x="49.92" y="0">r</tspan><tspan x="53.31" y="0">(</tspan><tspan class="cls-11" x="56.2" y="0">“</tspan><tspan x="59.26" y="0">dat</tspan><tspan class="cls-9" x="74.16" y="0">a</tspan><tspan x="79.33" y="0">”)==</tspan><tspan class="cls-38" x="95.64" y="0">“</tspan><tspan class="cls-19" x="99.17" y="0">1”) {</tspan><tspan class="cls-28" x="113.61" y="0">r</tspan><tspan x="117.03" y="0">etu</tspan><tspan class="cls-39" x="132.01" y="0">r</tspan><tspan class="cls-12" x="135.48" y="0">n </tspan><tspan class="cls-40" x="143.84" y="0">“</tspan><tspan x="147.14" y="0">tr</tspan></text><text class="cls-2" transform="translate(0 122.14)">&lt;i<tspan class="cls-3" x="7.47" y="0">m</tspan><tspan x="17.05" y="0">g s</tspan><tspan class="cls-28" x="29.81" y="0">r</tspan><tspan class="cls-12" x="33.23" y="0">c</tspan></text><text class="cls-2" transform="translate(0 148.36)"><tspan class="cls-9">c</tspan><tspan x="4.91" y="0">lass=</tspan><tspan class="cls-41" x="26.23" y="0">“</tspan><tspan x="29.53" y="0">fil”</tspan></text><text class="cls-2" transform="translate(0 140.37)">id=<tspan class="cls-42" x="13.54" y="0">“</tspan><tspan class="cls-12" x="16.99" y="0">nu</tspan><tspan class="cls-9" x="29.07" y="0">m</tspan><tspan x="38.56" y="0">”</tspan></text><text class="cls-2" transform="translate(0 130.88)">o<tspan class="cls-3" x="5.58" y="0">n</tspan><tspan class="cls-9" x="11.65" y="0">c</tspan><tspan class="cls-12" x="16.56" y="0">ha</tspan><tspan class="cls-3" x="27.86" y="0">n</tspan><tspan x="33.93" y="0">g</tspan></text><text class="cls-2" transform="translate(0 167.49)">else if ($(this)<tspan class="cls-30" x="57.77" y="0">.</tspan><tspan x="59.66" y="0">a</tspan><tspan class="cls-28" x="64.91" y="0">t</tspan><tspan class="cls-12" x="68.36" y="0">t</tspan><tspan class="cls-7" x="71.94" y="0">r</tspan><tspan x="75.34" y="0">(</tspan><tspan class="cls-28" x="78.23" y="0">“</tspan><tspan class="cls-19" x="81.28" y="0">dat</tspan><tspan class="cls-9" x="96.18" y="0">a</tspan><tspan class="cls-19" x="101.35" y="0">”)==</tspan><tspan class="cls-43" x="117.66" y="0">“</tspan><tspan x="120.99" y="0">2”) {</tspan><tspan class="cls-28" x="137.33" y="0">r</tspan><tspan x="140.75" y="0">e</tspan></text><text class="cls-2" transform="translate(0 176.94)">else{<tspan class="cls-11" x="20.28" y="0">r</tspan><tspan class="cls-12" x="23.7" y="0">etu</tspan><tspan class="cls-9" x="38.67" y="0">r</tspan><tspan x="42.14" y="0">n </tspan><tspan class="cls-41" x="50.51" y="0">“</tspan><tspan x="53.8" y="0">t</tspan><tspan class="cls-39" x="57.38" y="0">r</tspan><tspan x="60.85" y="0">ansla</tspan><tspan class="cls-37" x="84.05" y="0">t</tspan><tspan x="87.46" y="0">e(</tspan><tspan class="cls-44" x="95.72" y="0">0</tspan><tspan class="cls-19" x="101.55" y="0">, 1</tspan><tspan class="cls-33" x="108.84" y="0">2</tspan><tspan x="113.87" y="0">0</tspan></text><text class="cls-2" transform="translate(217.75 24.55)">$(this).<tspan class="cls-3" x="29.36" y="0">h</tspan><tspan class="cls-4" x="35.42" y="0">ov</tspan><tspan x="45.49" y="0">e</tspan><tspan class="cls-5" x="50.86" y="0">r</tspan><tspan x="54.25" y="0">(fu</tspan><tspan class="cls-3" x="66.11" y="0">n</tspan><tspan class="cls-6" x="72.18" y="0">c</tspan><tspan x="77.23" y="0">tion(</tspan><tspan class="cls-15" x="97.68" y="0">e</tspan><tspan class="cls-16" x="102.97" y="0">v</tspan><tspan class="cls-12" x="107.58" y="0">en</tspan></text><text class="cls-2" transform="translate(217.75 164.1)">$(this).<tspan class="cls-3" x="29.36" y="0">h</tspan><tspan class="cls-4" x="35.42" y="0">ov</tspan><tspan x="45.49" y="0">e</tspan><tspan class="cls-5" x="50.86" y="0">r</tspan><tspan x="54.25" y="0">(fu</tspan><tspan class="cls-3" x="66.11" y="0">n</tspan><tspan class="cls-6" x="72.18" y="0">c</tspan><tspan x="77.23" y="0">tion(</tspan><tspan class="cls-15" x="97.68" y="0">e</tspan><tspan class="cls-16" x="102.97" y="0">v</tspan><tspan class="cls-12" x="107.58" y="0">en</tspan></text><text class="cls-2" transform="translate(205.17 33.36)">d3.sele<tspan class="cls-6" x="30.29" y="0">c</tspan><tspan x="35.34" y="0">tAll(“</tspan><tspan class="cls-45" x="56.03" y="0">s</tspan><tspan class="cls-4" x="60.25" y="0">v</tspan><tspan class="cls-19" x="64.86" y="0">g”).sele</tspan><tspan class="cls-6" x="96.27" y="0">c</tspan><tspan x="101.32" y="0">tAll(</tspan><tspan class="cls-46" x="118.83" y="0">“</tspan><tspan class="cls-28" x="122.28" y="0">r</tspan><tspan x="125.7" y="0">e</tspan><tspan class="cls-6" x="131.07" y="0">c</tspan><tspan x="136.12" y="0">t</tspan></text><text class="cls-2" transform="translate(205.17 154.38)">d3.sele<tspan class="cls-6" x="30.29" y="0">c</tspan><tspan x="35.34" y="0">tAll(“</tspan><tspan class="cls-45" x="56.03" y="0">s</tspan><tspan class="cls-4" x="60.25" y="0">v</tspan><tspan class="cls-19" x="64.86" y="0">g”).sele</tspan><tspan class="cls-6" x="96.27" y="0">c</tspan><tspan x="101.32" y="0">tAll(</tspan><tspan class="cls-46" x="118.83" y="0">“</tspan><tspan class="cls-28" x="122.28" y="0">r</tspan><tspan x="125.7" y="0">e</tspan><tspan class="cls-6" x="131.07" y="0">c</tspan><tspan x="136.12" y="0">t</tspan></text><text class="cls-2" transform="translate(263.78 7.92)">#id12</text><text class="cls-2" transform="translate(263.78 181.87)">#id12</text><text class="cls-2" transform="translate(234.36 15.77)">$(docu<tspan class="cls-3" x="31.04" y="0">m</tspan><tspan x="40.63" y="0">ent).</tspan><tspan class="cls-11" x="60.33" y="0">r</tspan><tspan class="cls-4" x="63.76" y="0">e</tspan><tspan class="cls-3" x="68.99" y="0">a</tspan><tspan x="74.25" y="0">dy</tspan></text><text class="cls-2" transform="translate(234.36 173.1)">$(docu<tspan class="cls-3" x="31.04" y="0">m</tspan><tspan x="40.63" y="0">ent).</tspan><tspan class="cls-11" x="60.33" y="0">r</tspan><tspan class="cls-4" x="63.76" y="0">e</tspan><tspan class="cls-3" x="68.99" y="0">a</tspan><tspan x="74.25" y="0">dy</tspan></text><text class="cls-2" transform="translate(194.47 144.36)">&lt;video&gt;&lt;aud</text><text class="cls-2" transform="translate(300.87 144.36)">&lt;video&gt;&lt;aud</text><text class="cls-2" transform="translate(189.52 135.98)">&lt;g&gt;&lt;ci<tspan class="cls-28" x="28.84" y="0">r</tspan><tspan class="cls-9" x="32.26" y="0">c</tspan><tspan class="cls-19" x="37.18" y="0">le</tspan></text><text class="cls-2" transform="translate(316.6 135.98)">&lt;g&gt;&lt;ci<tspan class="cls-28" x="28.84" y="0">r</tspan><tspan class="cls-9" x="32.26" y="0">c</tspan><tspan class="cls-19" x="37.18" y="0">le</tspan></text><text class="cls-2" transform="translate(185.6 127.86)">&lt;ul&gt;&lt;li&gt;<tspan class="cls-47" x="33.55" y="0">P</tspan><tspan x="39.75" y="0">r</tspan></text><text class="cls-2" transform="translate(323.29 127.86)">&lt;ul&gt;&lt;li&gt;<tspan class="cls-47" x="33.55" y="0">P</tspan><tspan x="39.75" y="0">r</tspan></text><text class="cls-2" transform="translate(183.04 119.65)">&lt;a <tspan class="cls-9" x="12.68" y="0">c</tspan><tspan x="17.59" y="0">lass=“</tspan></text><text class="cls-2" transform="translate(326.85 119.65)">&lt;a <tspan class="cls-9" x="12.68" y="0">c</tspan><tspan x="17.59" y="0">lass=“</tspan></text><text class="cls-2" transform="translate(182.04 110.51)">s<tspan class="cls-21" x="4.3" y="0">t</tspan><tspan x="7.79" y="0">yle=</tspan><tspan class="cls-48" x="25.39" y="0">“</tspan><tspan x="28.87" y="0">wi</tspan></text><text class="cls-2" transform="translate(330.75 110.51)">s<tspan class="cls-21" x="4.3" y="0">t</tspan><tspan x="7.79" y="0">yle=</tspan><tspan class="cls-48" x="25.39" y="0">“</tspan><tspan x="28.87" y="0">wi</tspan></text><text class="cls-2" transform="translate(179.26 101.27)"><tspan class="cls-9">c</tspan><tspan x="4.91" y="0">onsole.lo</tspan></text><text class="cls-2" transform="translate(328.75 101.27)"><tspan class="cls-9">c</tspan><tspan x="4.91" y="0">onsole.lo</tspan></text><text class="cls-2" transform="translate(180.26 92.6)">ale<tspan class="cls-49" x="12.97" y="0">r</tspan><tspan x="16.65" y="0">t(“Hel</tspan></text><text class="cls-2" transform="translate(182.26 83.29)">wi<tspan class="cls-3" x="10.11" y="0">n</tspan><tspan x="16.17" y="0">d</tspan><tspan class="cls-4" x="22.25" y="0">o</tspan><tspan class="cls-50" x="27.69" y="0">w</tspan><tspan class="cls-19" x="35.4" y="0">s</tspan></text><text class="cls-2" transform="translate(183.04 75.28)">d3.brush(</text><text class="cls-2" transform="translate(326.85 75.28)">d3.brush(</text><text class="cls-2" transform="translate(185.06 66.36)">d3.<tspan class="cls-9" x="12.9" y="0">z</tspan><tspan x="17.34" y="0">oom()</tspan></text><text class="cls-2" transform="translate(323.85 66.36)">d3.<tspan class="cls-9" x="12.9" y="0">z</tspan><tspan x="17.34" y="0">oom()</tspan></text><text class="cls-2" transform="translate(187.84 57.86)">&lt;sc<tspan class="cls-9" x="14.42" y="0">r</tspan><tspan class="cls-19" x="17.88" y="0">ipt </tspan><tspan class="cls-28" x="32.2" y="0">r</tspan><tspan class="cls-12" x="35.62" y="0">el</tspan></text><text class="cls-2" transform="translate(319.59 57.86)">&lt;sc<tspan class="cls-9" x="14.42" y="0">r</tspan><tspan class="cls-19" x="17.88" y="0">ipt </tspan><tspan class="cls-28" x="32.2" y="0">r</tspan><tspan class="cls-12" x="35.62" y="0">el</tspan></text><text class="cls-2" transform="translate(191.47 49.43)">&lt;s<tspan class="cls-20" x="9.42" y="0">p</tspan><tspan x="15.48" y="0">an&gt;This</tspan></text><text class="cls-2" transform="translate(310.85 49.43)">&lt;s<tspan class="cls-20" x="9.42" y="0">p</tspan><tspan x="15.48" y="0">an&gt;This</tspan></text><text class="cls-2" transform="translate(198.75 41.45)">wi<tspan class="cls-3" x="10.11" y="0">n</tspan><tspan x="16.17" y="0">d</tspan><tspan class="cls-4" x="22.25" y="0">o</tspan><tspan class="cls-50" x="27.69" y="0">w</tspan><tspan class="cls-19" x="35.4" y="0">s.h</tspan><tspan class="cls-28" x="47.56" y="0">r</tspan><tspan class="cls-12" x="50.98" y="0">e</tspan></text><text class="cls-2" transform="translate(298.87 41.45)">wi<tspan class="cls-3" x="10.11" y="0">n</tspan><tspan x="16.17" y="0">d</tspan><tspan class="cls-4" x="22.25" y="0">o</tspan><tspan class="cls-50" x="27.69" y="0">w</tspan><tspan class="cls-19" x="35.4" y="0">s.h</tspan><tspan class="cls-28" x="47.56" y="0">r</tspan><tspan class="cls-12" x="50.98" y="0">e</tspan></text><text class="cls-2" transform="translate(329.75 83.29)">wi<tspan class="cls-3" x="10.11" y="0">n</tspan><tspan x="16.17" y="0">d</tspan><tspan class="cls-4" x="22.25" y="0">o</tspan><tspan class="cls-50" x="27.69" y="0">w</tspan><tspan class="cls-19" x="35.4" y="0">s</tspan></text><text class="cls-2" transform="translate(330.75 92.6)">ale<tspan class="cls-49" x="12.97" y="0">r</tspan><tspan x="16.65" y="0">t(“Hel</tspan></text><text class="cls-2" transform="translate(402.23 11.07)">$(this).<tspan class="cls-3" x="29.36" y="0">h</tspan><tspan class="cls-4" x="35.42" y="0">ov</tspan><tspan x="45.49" y="0">e</tspan><tspan class="cls-5" x="50.86" y="0">r</tspan><tspan x="54.25" y="0">(fu</tspan><tspan class="cls-3" x="66.11" y="0">n</tspan><tspan class="cls-6" x="72.18" y="0">c</tspan><tspan x="77.23" y="0">tion() { $</tspan></text><text class="cls-2" transform="translate(402.23 21.36)">$(this)<tspan class="cls-7" x="27.56" y="0">.</tspan><tspan x="29.2" y="0">css(“</tspan><tspan class="cls-8" x="48.87" y="0">b</tspan><tspan class="cls-3" x="54.93" y="0">a</tspan><tspan class="cls-9" x="60.18" y="0">c</tspan><tspan class="cls-10" x="65.1" y="0">k</tspan><tspan x="70.2" y="0">g</tspan><tspan class="cls-11" x="76.34" y="0">r</tspan><tspan class="cls-12" x="79.76" y="0">ou</tspan><tspan class="cls-3" x="91.36" y="0">n</tspan><tspan x="97.42" y="0">d</tspan><tspan class="cls-13" x="103.5" y="0">-</tspan><tspan class="cls-9" x="107.02" y="0">c</tspan><tspan x="111.93" y="0">olo</tspan><tspan class="cls-14" x="125.44" y="0">r</tspan><tspan x="129.27" y="0">”</tspan></text><text class="cls-2" transform="translate(402.23 32.02)">$(this)<tspan class="cls-7" x="27.56" y="0">.</tspan><tspan class="cls-9" x="29.2" y="0">c</tspan><tspan class="cls-12" x="34.12" y="0">li</tspan><tspan class="cls-9" x="38.82" y="0">c</tspan><tspan x="43.73" y="0">k(fu</tspan><tspan class="cls-3" x="60.88" y="0">n</tspan><tspan class="cls-6" x="66.95" y="0">c</tspan><tspan x="72" y="0">tion(</tspan><tspan class="cls-15" x="92.46" y="0">e</tspan><tspan class="cls-16" x="97.74" y="0">v</tspan><tspan x="102.36" y="0">ent) { if (e</tspan></text><text class="cls-2" transform="translate(402.23 40.75)">cus<tspan class="cls-17" x="15.32" y="0">t</tspan><tspan class="cls-12" x="18.73" y="0">om</tspan><tspan class="cls-7" x="33.88" y="0">.</tspan><tspan x="35.53" y="0">c</tspan></text><text class="cls-2" transform="translate(504.94 41.75)">&lt;p&gt;Hi !&lt;<tspan class="cls-18" x="35.69" y="0">/</tspan><tspan class="cls-19" x="37.95" y="0">p&gt;</tspan></text><text class="cls-2" transform="translate(402.23 48.88)">o<tspan class="cls-20" x="5.58" y="0">p</tspan><tspan class="cls-3" x="11.64" y="0">a</tspan><tspan x="16.89" y="0">ci</tspan><tspan class="cls-21" x="24.24" y="0">t</tspan><tspan class="cls-22" x="27.73" y="0">y</tspan><tspan x="32.56" y="0">: 1</tspan></text><text class="cls-2" transform="translate(402.23 57.46)">st<tspan class="cls-11" x="7.88" y="0">r</tspan><tspan class="cls-12" x="11.3" y="0">o</tspan><tspan class="cls-10" x="16.88" y="0">k</tspan><tspan x="21.99" y="0">e: #1</tspan></text><text class="cls-2" transform="translate(402.23 66.22)">wi<tspan class="cls-23" x="10.11" y="0">d</tspan><tspan x="16.12" y="0">th: </tspan><tspan class="cls-24" x="29.87" y="0">3</tspan><tspan x="34.85" y="0">3</tspan></text><text class="cls-2" transform="translate(511.23 49.83)">&lt;div&gt;&lt;<tspan class="cls-18" x="28.54" y="0">/</tspan><tspan x="30.8" y="0">div</tspan></text><text class="cls-2" transform="translate(512.66 58.46)">&lt;n<tspan class="cls-21" x="11.18" y="0">a</tspan><tspan x="16.33" y="0">v&gt;&lt;a&gt;</tspan></text><text class="cls-2" transform="translate(510.75 67.31)">&lt;div&gt;&lt;<tspan class="cls-18" x="28.54" y="0">/</tspan><tspan x="30.8" y="0">di</tspan></text><text class="cls-25" transform="translate(402.23 74.11)">h<tspan class="cls-12" x="6.07" y="0">eight: 31</tspan></text><text class="cls-2" transform="translate(505.81 74.11)"><tspan class="cls-26">v</tspan><tspan x="4.61" y="0">ar x, </tspan><tspan class="cls-27" x="24.5" y="0">y</tspan><tspan x="28.94" y="0">, z;</tspan></text><text class="cls-2" transform="translate(402.23 83.66)">set<tspan class="cls-28" x="13.26" y="0">T</tspan><tspan x="18.2" y="0">i</tspan><tspan class="cls-29" x="20.55" y="0">m</tspan><tspan x="30.13" y="0">eout(fu</tspan><tspan class="cls-3" x="62.55" y="0">n</tspan><tspan class="cls-6" x="68.61" y="0">c</tspan><tspan x="73.66" y="0">tion() { $(“#id”</tspan></text><text class="cls-2" transform="translate(402.23 93.25)">d3.sele<tspan class="cls-6" x="30.29" y="0">c</tspan><tspan x="35.34" y="0">tAll(“#id”)</tspan><tspan class="cls-7" x="76.74" y="0">.</tspan><tspan class="cls-19" x="78.39" y="0">data(datase</tspan></text><text class="cls-2" transform="translate(402.23 103.24)"><tspan class="cls-7">.</tspan><tspan x="1.65" y="0">en</tspan><tspan class="cls-17" x="13.08" y="0">t</tspan><tspan class="cls-12" x="16.49" y="0">e</tspan><tspan class="cls-7" x="21.86" y="0">r</tspan><tspan x="25.25" y="0">()</tspan><tspan class="cls-30" x="31.04" y="0">.</tspan><tspan class="cls-12" x="32.93" y="0">a</tspan><tspan class="cls-28" x="38.18" y="0">t</tspan><tspan x="41.63" y="0">t</tspan><tspan class="cls-7" x="45.22" y="0">r</tspan><tspan class="cls-12" x="48.61" y="0">(</tspan><tspan class="cls-31" x="51.5" y="0">“</tspan><tspan x="54.98" y="0">wi</tspan><tspan class="cls-32" x="65.09" y="0">d</tspan><tspan x="71.1" y="0">t</tspan><tspan class="cls-9" x="74.68" y="0">h</tspan><tspan class="cls-26" x="80.66" y="0">”</tspan><tspan class="cls-19" x="83.69" y="0">, 1</tspan><tspan class="cls-33" x="90.98" y="0">2</tspan><tspan x="96.01" y="0">0</tspan><tspan class="cls-34" x="101.93" y="0">p</tspan><tspan x="107.84" y="0">x)</tspan><tspan class="cls-13" x="115.41" y="0">.</tspan><tspan x="117.3" y="0">a</tspan><tspan class="cls-28" x="122.54" y="0">t</tspan><tspan x="126" y="0">t</tspan><tspan class="cls-7" x="129.58" y="0">r</tspan><tspan class="cls-12" x="132.97" y="0">(“</tspan><tspan class="cls-3" x="139.04" y="0">h</tspan><tspan class="cls-12" x="145.11" y="0">e</tspan></text><text class="cls-2" transform="translate(513.23 111.93)">&lt;<tspan class="cls-21" x="5.12" y="0">s</tspan><tspan class="cls-4" x="9.33" y="0">v</tspan><tspan class="cls-19" x="13.95" y="0">g wi</tspan><tspan class="cls-23" x="32.51" y="0">d</tspan><tspan x="38.52" y="0">t</tspan></text><text class="cls-2" transform="translate(519.94 121.64)">&lt;<tspan class="cls-28" x="5.12" y="0">r</tspan><tspan class="cls-12" x="8.54" y="0">e</tspan><tspan class="cls-35" x="13.91" y="0">c</tspan><tspan class="cls-12" x="18.96" y="0">t x=</tspan><tspan class="cls-36" x="34.65" y="0">“</tspan><tspan x="37.48" y="0">4</tspan></text><text class="cls-2" transform="translate(521.98 130.89)">&lt;ci<tspan class="cls-28" x="12.46" y="0">r</tspan><tspan class="cls-9" x="15.88" y="0">c</tspan><tspan x="20.8" y="0">le </tspan><tspan class="cls-37" x="30.83" y="0">c</tspan><tspan x="35.66" y="0">x</tspan></text><text class="cls-2" transform="translate(519.94 138.87)">&lt;g = <tspan class="cls-9" x="21.01" y="0">c</tspan><tspan class="cls-19" x="25.92" y="0">lass</tspan></text><text class="cls-2" transform="translate(510.23 147.86)">.<tspan class="cls-11" x="1.8" y="0">r</tspan><tspan class="cls-4" x="5.22" y="0">e</tspan><tspan class="cls-3" x="10.46" y="0">a</tspan><tspan x="15.71" y="0">dy(fu</tspan><tspan class="cls-3" x="38.4" y="0">n</tspan><tspan x="44.47" y="0">c</tspan></text><text class="cls-2" transform="translate(402.23 111.93)">appe<tspan class="cls-3" x="22.77" y="0">n</tspan><tspan x="28.84" y="0">d()</tspan></text><text class="cls-2" transform="translate(402.23 157.44)">if($(this)<tspan class="cls-30" x="35.75" y="0">.</tspan><tspan x="37.64" y="0">a</tspan><tspan class="cls-28" x="42.88" y="0">t</tspan><tspan x="46.34" y="0">t</tspan><tspan class="cls-5" x="49.92" y="0">r</tspan><tspan x="53.31" y="0">(</tspan><tspan class="cls-11" x="56.2" y="0">“</tspan><tspan x="59.26" y="0">dat</tspan><tspan class="cls-9" x="74.16" y="0">a</tspan><tspan x="79.33" y="0">”)==</tspan><tspan class="cls-38" x="95.64" y="0">“</tspan><tspan class="cls-19" x="99.17" y="0">1”) {</tspan><tspan class="cls-28" x="113.61" y="0">r</tspan><tspan x="117.03" y="0">etu</tspan><tspan class="cls-39" x="132.01" y="0">r</tspan><tspan class="cls-12" x="135.48" y="0">n </tspan><tspan class="cls-40" x="143.84" y="0">“</tspan><tspan x="147.14" y="0">tr</tspan></text><text class="cls-2" transform="translate(402.23 121.64)">&lt;i<tspan class="cls-3" x="7.47" y="0">m</tspan><tspan x="17.05" y="0">g s</tspan><tspan class="cls-28" x="29.81" y="0">r</tspan><tspan class="cls-12" x="33.23" y="0">c</tspan></text><text class="cls-2" transform="translate(402.23 147.86)"><tspan class="cls-9">c</tspan><tspan x="4.91" y="0">lass=</tspan><tspan class="cls-41" x="26.23" y="0">“</tspan><tspan x="29.53" y="0">fil”</tspan></text><text class="cls-2" transform="translate(402.23 139.87)">id=<tspan class="cls-42" x="13.54" y="0">“</tspan><tspan class="cls-12" x="16.99" y="0">nu</tspan><tspan class="cls-9" x="29.07" y="0">m</tspan><tspan x="38.56" y="0">”</tspan></text><text class="cls-2" transform="translate(402.23 130.38)">o<tspan class="cls-3" x="5.58" y="0">n</tspan><tspan class="cls-9" x="11.65" y="0">c</tspan><tspan class="cls-12" x="16.56" y="0">ha</tspan><tspan class="cls-3" x="27.86" y="0">n</tspan><tspan x="33.93" y="0">g</tspan></text><text class="cls-2" transform="translate(402.23 166.99)">else if ($(this)<tspan class="cls-30" x="57.77" y="0">.</tspan><tspan x="59.66" y="0">a</tspan><tspan class="cls-28" x="64.91" y="0">t</tspan><tspan class="cls-12" x="68.36" y="0">t</tspan><tspan class="cls-7" x="71.94" y="0">r</tspan><tspan x="75.34" y="0">(</tspan><tspan class="cls-28" x="78.23" y="0">“</tspan><tspan class="cls-19" x="81.28" y="0">dat</tspan><tspan class="cls-9" x="96.18" y="0">a</tspan><tspan class="cls-19" x="101.35" y="0">”)==</tspan><tspan class="cls-43" x="117.66" y="0">“</tspan><tspan x="120.99" y="0">2”) {</tspan><tspan class="cls-28" x="137.33" y="0">r</tspan><tspan x="140.75" y="0">e</tspan></text><text class="cls-2" transform="translate(402.23 176.44)">else{<tspan class="cls-11" x="20.28" y="0">r</tspan><tspan class="cls-12" x="23.7" y="0">etu</tspan><tspan class="cls-9" x="38.67" y="0">r</tspan><tspan x="42.14" y="0">n </tspan><tspan class="cls-41" x="50.51" y="0">“</tspan><tspan x="53.8" y="0">t</tspan><tspan class="cls-39" x="57.38" y="0">r</tspan><tspan x="60.85" y="0">ansla</tspan><tspan class="cls-37" x="84.05" y="0">t</tspan><tspan x="87.46" y="0">e(</tspan><tspan class="cls-44" x="95.72" y="0">0</tspan><tspan class="cls-19" x="101.55" y="0">, 1</tspan><tspan class="cls-33" x="108.84" y="0">2</tspan><tspan x="113.87" y="0">0</tspan></text><text class="cls-2" transform="translate(620.04 24.28)">$(this).<tspan class="cls-3" x="29.36" y="0">h</tspan><tspan class="cls-4" x="35.42" y="0">ov</tspan><tspan x="45.49" y="0">e</tspan><tspan class="cls-5" x="50.86" y="0">r</tspan><tspan x="54.25" y="0">(fu</tspan><tspan class="cls-3" x="66.11" y="0">n</tspan><tspan class="cls-6" x="72.18" y="0">c</tspan><tspan x="77.23" y="0">tion(</tspan><tspan class="cls-15" x="97.68" y="0">e</tspan><tspan class="cls-16" x="102.97" y="0">v</tspan><tspan class="cls-12" x="107.58" y="0">en</tspan></text><text class="cls-2" transform="translate(620.04 163.84)">$(this).<tspan class="cls-3" x="29.36" y="0">h</tspan><tspan class="cls-4" x="35.42" y="0">ov</tspan><tspan x="45.49" y="0">e</tspan><tspan class="cls-5" x="50.86" y="0">r</tspan><tspan x="54.25" y="0">(fu</tspan><tspan class="cls-3" x="66.11" y="0">n</tspan><tspan class="cls-6" x="72.18" y="0">c</tspan><tspan x="77.23" y="0">tion(</tspan><tspan class="cls-15" x="97.68" y="0">e</tspan><tspan class="cls-16" x="102.97" y="0">v</tspan><tspan class="cls-12" x="107.58" y="0">en</tspan></text><text class="cls-2" transform="translate(607.46 33.09)">d3.sele<tspan class="cls-6" x="30.29" y="0">c</tspan><tspan x="35.34" y="0">tAll(“</tspan><tspan class="cls-45" x="56.03" y="0">s</tspan><tspan class="cls-4" x="60.25" y="0">v</tspan><tspan class="cls-19" x="64.86" y="0">g”).sele</tspan><tspan class="cls-6" x="96.27" y="0">c</tspan><tspan x="101.32" y="0">tAll(</tspan><tspan class="cls-46" x="118.83" y="0">“</tspan><tspan class="cls-28" x="122.28" y="0">r</tspan><tspan x="125.7" y="0">e</tspan><tspan class="cls-6" x="131.07" y="0">c</tspan><tspan x="136.12" y="0">t</tspan></text><text class="cls-2" transform="translate(607.46 154.11)">d3.sele<tspan class="cls-6" x="30.29" y="0">c</tspan><tspan x="35.34" y="0">tAll(“</tspan><tspan class="cls-45" x="56.03" y="0">s</tspan><tspan class="cls-4" x="60.25" y="0">v</tspan><tspan class="cls-19" x="64.86" y="0">g”).sele</tspan><tspan class="cls-6" x="96.27" y="0">c</tspan><tspan x="101.32" y="0">tAll(</tspan><tspan class="cls-46" x="118.83" y="0">“</tspan><tspan class="cls-28" x="122.28" y="0">r</tspan><tspan x="125.7" y="0">e</tspan><tspan class="cls-6" x="131.07" y="0">c</tspan><tspan x="136.12" y="0">t</tspan></text><text class="cls-2" transform="translate(666.07 7.65)">#id12</text><text class="cls-2" transform="translate(666.07 181.6)">#id12</text><text class="cls-2" transform="translate(636.65 15.51)">$(docu<tspan class="cls-3" x="31.04" y="0">m</tspan><tspan x="40.63" y="0">ent).</tspan><tspan class="cls-11" x="60.33" y="0">r</tspan><tspan class="cls-4" x="63.76" y="0">e</tspan><tspan class="cls-3" x="68.99" y="0">a</tspan><tspan x="74.25" y="0">dy</tspan></text><text class="cls-2" transform="translate(636.65 172.84)">$(docu<tspan class="cls-3" x="31.04" y="0">m</tspan><tspan x="40.63" y="0">ent).</tspan><tspan class="cls-11" x="60.33" y="0">r</tspan><tspan class="cls-4" x="63.76" y="0">e</tspan><tspan class="cls-3" x="68.99" y="0">a</tspan><tspan x="74.25" y="0">dy</tspan></text><text class="cls-2" transform="translate(596.76 144.09)">&lt;video&gt;&lt;aud</text><text class="cls-2" transform="translate(703.16 144.09)">&lt;video&gt;&lt;aud</text><text class="cls-2" transform="translate(591.81 135.71)">&lt;g&gt;&lt;ci<tspan class="cls-28" x="28.84" y="0">r</tspan><tspan class="cls-9" x="32.26" y="0">c</tspan><tspan class="cls-19" x="37.18" y="0">le</tspan></text><text class="cls-2" transform="translate(718.89 135.71)">&lt;g&gt;&lt;ci<tspan class="cls-28" x="28.84" y="0">r</tspan><tspan class="cls-9" x="32.26" y="0">c</tspan><tspan class="cls-19" x="37.18" y="0">le</tspan></text><text class="cls-2" transform="translate(587.89 127.59)">&lt;ul&gt;&lt;li&gt;<tspan class="cls-47" x="33.55" y="0">P</tspan><tspan x="39.75" y="0">r</tspan></text><text class="cls-2" transform="translate(725.57 127.59)">&lt;ul&gt;&lt;li&gt;<tspan class="cls-47" x="33.55" y="0">P</tspan><tspan x="39.75" y="0">r</tspan></text><text class="cls-2" transform="translate(585.33 119.38)">&lt;a <tspan class="cls-9" x="12.68" y="0">c</tspan><tspan x="17.59" y="0">lass=“</tspan></text><text class="cls-2" transform="translate(729.14 119.38)">&lt;a <tspan class="cls-9" x="12.68" y="0">c</tspan><tspan x="17.59" y="0">lass=“</tspan></text><text class="cls-2" transform="translate(584.33 110.24)">s<tspan class="cls-21" x="4.3" y="0">t</tspan><tspan x="7.79" y="0">yle=</tspan><tspan class="cls-48" x="25.39" y="0">“</tspan><tspan x="28.87" y="0">wi</tspan></text><text class="cls-2" transform="translate(733.04 110.24)">s<tspan class="cls-21" x="4.3" y="0">t</tspan><tspan x="7.79" y="0">yle=</tspan><tspan class="cls-48" x="25.39" y="0">“</tspan><tspan x="28.87" y="0">wi</tspan></text><text class="cls-2" transform="translate(581.55 101)"><tspan class="cls-9">c</tspan><tspan x="4.91" y="0">onsole.lo</tspan></text><text class="cls-2" transform="translate(731.04 101)"><tspan class="cls-9">c</tspan><tspan x="4.91" y="0">onsole.lo</tspan></text><text class="cls-2" transform="translate(582.55 92.33)">ale<tspan class="cls-49" x="12.97" y="0">r</tspan><tspan x="16.65" y="0">t(“Hel</tspan></text><text class="cls-2" transform="translate(584.55 83.02)">wi<tspan class="cls-3" x="10.11" y="0">n</tspan><tspan x="16.17" y="0">d</tspan><tspan class="cls-4" x="22.25" y="0">o</tspan><tspan class="cls-50" x="27.69" y="0">w</tspan><tspan class="cls-19" x="35.4" y="0">s</tspan></text><text class="cls-2" transform="translate(585.33 75.01)">d3.brush(</text><text class="cls-2" transform="translate(729.14 75.01)">d3.brush(</text><text class="cls-2" transform="translate(587.34 66.09)">d3.<tspan class="cls-9" x="12.9" y="0">z</tspan><tspan x="17.34" y="0">oom()</tspan></text><text class="cls-2" transform="translate(726.14 66.09)">d3.<tspan class="cls-9" x="12.9" y="0">z</tspan><tspan x="17.34" y="0">oom()</tspan></text><text class="cls-2" transform="translate(590.12 57.59)">&lt;sc<tspan class="cls-9" x="14.42" y="0">r</tspan><tspan class="cls-19" x="17.88" y="0">ipt </tspan><tspan class="cls-28" x="32.2" y="0">r</tspan><tspan class="cls-12" x="35.62" y="0">el</tspan></text><text class="cls-2" transform="translate(721.88 57.59)">&lt;sc<tspan class="cls-9" x="14.42" y="0">r</tspan><tspan class="cls-19" x="17.88" y="0">ipt </tspan><tspan class="cls-28" x="32.2" y="0">r</tspan><tspan class="cls-12" x="35.62" y="0">el</tspan></text><text class="cls-2" transform="translate(593.76 49.16)">&lt;s<tspan class="cls-20" x="9.42" y="0">p</tspan><tspan x="15.48" y="0">an&gt;This</tspan></text><text class="cls-2" transform="translate(713.14 49.16)">&lt;s<tspan class="cls-20" x="9.42" y="0">p</tspan><tspan x="15.48" y="0">an&gt;This</tspan></text><text class="cls-2" transform="translate(601.04 41.18)">wi<tspan class="cls-3" x="10.11" y="0">n</tspan><tspan x="16.17" y="0">d</tspan><tspan class="cls-4" x="22.25" y="0">o</tspan><tspan class="cls-50" x="27.69" y="0">w</tspan><tspan class="cls-19" x="35.4" y="0">s.h</tspan><tspan class="cls-28" x="47.56" y="0">r</tspan><tspan class="cls-12" x="50.98" y="0">e</tspan></text><text class="cls-2" transform="translate(701.16 41.18)">wi<tspan class="cls-3" x="10.11" y="0">n</tspan><tspan x="16.17" y="0">d</tspan><tspan class="cls-4" x="22.25" y="0">o</tspan><tspan class="cls-50" x="27.69" y="0">w</tspan><tspan class="cls-19" x="35.4" y="0">s.h</tspan><tspan class="cls-28" x="47.56" y="0">r</tspan><tspan class="cls-12" x="50.98" y="0">e</tspan></text><text class="cls-2" transform="translate(732.04 83.02)">wi<tspan class="cls-3" x="10.11" y="0">n</tspan><tspan x="16.17" y="0">d</tspan><tspan class="cls-4" x="22.25" y="0">o</tspan><tspan class="cls-50" x="27.69" y="0">w</tspan><tspan class="cls-19" x="35.4" y="0">s</tspan></text><text class="cls-2" transform="translate(733.04 92.33)">ale<tspan class="cls-49" x="12.97" y="0">r</tspan><tspan x="16.65" y="0">t(“Hel</tspan></text></svg>